<svg width="112" height="21" viewBox="0 0 112 21" fill="none" xmlns="http://www.w3.org/2000/svg">
<path d="M26.6863 12.3518L25.2752 15.2188H24.7729L28.6715 7.24193C28.7193 7.14944 28.7911 7.08008 28.9106 7.08008H29.6521C29.7717 7.08008 29.8673 7.14944 29.8912 7.24193L33.7898 15.2188H33.2875L31.9003 12.3518H26.6863ZM29.8195 8.14366C29.6999 7.91245 29.6042 7.70436 29.4847 7.47314H29.0302C28.9106 7.70436 28.815 7.91245 28.7193 8.14366L26.8777 11.9356H31.6611L29.8195 8.14366Z" fill="white"/>
<path d="M44.0025 15.2185L42.8545 12.652C42.4958 11.889 41.9217 11.6347 41.0846 11.6347C39.6018 11.6347 38.4777 11.6116 37.9036 11.5885V15.2185H37.4253V7.07979C38.5255 6.9873 39.3148 6.9873 40.9411 6.9873C43.2611 6.9873 44.1221 7.47285 44.1221 9.27632C44.1221 10.7098 43.5242 11.2879 42.1131 11.4266V11.496C42.6632 11.6116 43.0698 12.0509 43.3089 12.6289L44.5048 15.2185H44.0025ZM40.965 11.1954C42.9263 11.1723 43.6438 10.7792 43.6438 9.29944C43.6438 7.79655 42.9263 7.40349 40.965 7.40349C39.6018 7.40349 38.4777 7.42661 37.9276 7.42661V11.1954H40.965Z" fill="white"/>
<path d="M51.7753 7.51921V15.2418H51.297V7.51921H47.4941V7.10303H55.6021V7.51921H51.7753Z" fill="white"/>
<path d="M62.4428 15.2188H61.9645V12.2593L58.2334 7.1032H58.7835L61.5579 10.8951C61.7492 11.1726 61.9645 11.4963 62.1558 11.7737H62.2515L62.8255 10.9182L65.6238 7.08008H66.1739L62.4428 12.2593V15.2188Z" fill="white"/>
<path d="M75.6931 7.12614L75.6452 7.47297C74.6886 7.42672 73.684 7.38048 72.7034 7.38048C70.7183 7.38048 69.8573 7.42672 69.8573 9.04522C69.8573 10.155 70.3356 10.5712 71.5554 10.71L73.971 11.0105C75.5735 11.1955 76.1714 11.7967 76.1714 13.1839C76.1714 15.103 74.9995 15.3342 72.823 15.3342C71.962 15.3342 70.9335 15.3111 69.5942 15.1724L69.642 14.8024C70.9096 14.8718 71.6989 14.8949 72.8708 14.8949C74.9516 14.8718 75.717 14.6637 75.717 13.1839C75.717 11.9816 75.2386 11.6117 73.9471 11.473L71.5554 11.1724C70.0008 10.9874 69.4268 10.34 69.4268 9.04522C69.4268 7.10302 70.503 6.91805 72.7513 6.94117C73.684 6.96429 74.7125 7.01054 75.6931 7.12614Z" fill="white"/>
<path d="M87.6512 15.2188H87.1729V11.057H80.9305V15.2188H80.4521V7.08008H80.9305V10.6408H87.1729V7.08008H87.6512V15.2188Z" fill="white"/>
<path d="M100.28 11.1495C100.28 14.2709 99.2274 15.3576 96.2139 15.3576C93.2242 15.3576 92.1479 14.2709 92.1479 11.1495C92.1479 8.02811 93.2003 6.94141 96.2139 6.94141C99.2274 6.94141 100.28 8.02811 100.28 11.1495ZM92.6502 11.1495C92.6502 13.9472 93.5591 14.9183 96.2139 14.9183C98.8687 14.9183 99.7775 13.9472 99.7775 11.1495C99.7775 8.35181 98.8687 7.38071 96.2139 7.38071C93.5591 7.38071 92.6502 8.35181 92.6502 11.1495Z" fill="white"/>
<path d="M105.183 11.1726C105.231 11.5194 105.231 11.82 105.231 12.1437V15.2188H104.776V7.08008H105.231V9.8084C105.231 10.1552 105.207 10.4558 105.183 10.7795H106.929L110.708 7.08008H111.33L107.718 10.6177C107.575 10.7564 107.431 10.872 107.336 10.9645V10.9876C107.455 11.0801 107.599 11.1957 107.718 11.3344L111.593 15.2188H110.971L106.929 11.1726H105.183Z" fill="white"/>
<path d="M10.183 0.6058C9.46553 0.721407 8.89151 1.36881 8.67626 1.60002C8.461 1.85436 11.8812 1.94684 11.7616 1.55378C11.642 1.16071 11.2115 0.559558 10.3983 0.582679C10.3265 0.582679 10.2548 0.582679 10.183 0.6058Z" fill="#F2F2F2"/>
<path d="M10.2789 1.94705C9.51358 1.94705 8.72431 1.87769 8.60472 1.71584C8.55689 1.64648 8.55689 1.57711 8.60472 1.53087L8.62864 1.50775C8.86781 1.23029 9.44183 0.606013 10.1833 0.490407C10.255 0.467285 10.3268 0.467285 10.3985 0.467285H10.4224C11.3074 0.467285 11.7618 1.13781 11.8814 1.53087C11.9053 1.57711 11.9053 1.69272 11.7379 1.7852C11.5226 1.87769 10.9008 1.94705 10.2789 1.94705ZM8.86781 1.60023C9.32224 1.73896 11.3791 1.76208 11.6422 1.57711C11.5226 1.23029 11.14 0.698499 10.4224 0.698499H10.3985C10.3268 0.698499 10.2789 0.698499 10.2072 0.72162C9.60925 0.814106 9.10699 1.32278 8.86781 1.60023Z" fill="black"/>
<path d="M13.4119 1.87795C13.4119 1.87795 12.8618 1.02246 12.24 1.02246C11.8573 1.02246 11.6659 1.41552 11.2593 1.48489C10.8528 1.55425 10.9006 1.23055 10.5179 1.23055C10.1352 1.20743 10.0874 1.50801 9.70472 1.53113C9.32205 1.53113 9.32205 1.09183 9.03504 1.09183C8.74803 1.09183 8.74803 1.36928 8.60453 1.34616C8.46103 1.32304 8.55669 1.09183 8.1501 1.11495C7.74351 1.13807 7.33691 1.46177 7.33691 1.46177L9.03504 4.05136L13.4119 1.87795Z" fill="#F2F2F2"/>
<path d="M9.01108 4.2131L7.21729 1.43853L7.28904 1.36917C7.31295 1.34604 7.74346 0.976102 8.17398 0.976102C8.46098 0.976102 8.55665 1.09171 8.6284 1.20732L8.65232 1.18419C8.72407 1.11483 8.81974 0.976102 9.035 0.976102C9.22634 0.976102 9.322 1.11483 9.41767 1.20732C9.51334 1.32292 9.58509 1.39229 9.70468 1.39229C9.84818 1.39229 9.91994 1.34604 10.0156 1.27668C10.1352 1.18419 10.2787 1.09171 10.5179 1.11483C10.7331 1.11483 10.8527 1.20732 10.9484 1.2998C11.044 1.34604 11.0919 1.39229 11.2354 1.36917C11.4028 1.34604 11.5224 1.25356 11.6659 1.16107C11.8333 1.04547 12.0007 0.906738 12.2399 0.906738C12.9335 0.906738 13.4836 1.78535 13.5075 1.83159L13.5793 1.9472L9.01108 4.2131ZM7.52821 1.48477L9.10675 3.91252L13.2444 1.85472C13.077 1.64662 12.6943 1.16107 12.2399 1.16107C12.0725 1.16107 11.9529 1.25356 11.8094 1.36917C11.6659 1.48477 11.4985 1.60038 11.2832 1.6235C11.0201 1.66974 10.9005 1.55414 10.8049 1.48477C10.7331 1.41541 10.6614 1.36917 10.5179 1.36917C10.3504 1.36917 10.2787 1.41541 10.183 1.48477C10.0634 1.55414 9.94385 1.64662 9.7286 1.64662C9.46551 1.64662 9.322 1.48477 9.25025 1.36917C9.1785 1.27668 9.13067 1.23044 9.08283 1.23044C8.98716 1.23044 8.93933 1.27668 8.89149 1.34604C8.84366 1.41541 8.77191 1.50789 8.65232 1.48477C8.55665 1.46165 8.50882 1.39229 8.4849 1.34604C8.46098 1.2998 8.41315 1.23044 8.24573 1.23044C7.9348 1.20732 7.67171 1.36917 7.52821 1.48477Z" fill="black"/>
<path d="M14.2254 4.07452C14.2254 4.07452 12.599 1.62365 12.025 1.9936C11.451 2.36354 11.9771 4.62944 11.9771 4.62944L14.2254 4.07452Z" fill="#F2F2F2"/>
<path d="M11.8812 4.76807L11.8573 4.65246C11.8094 4.42125 11.355 2.29408 11.9769 1.90102C12.0725 1.85477 12.1682 1.83165 12.2639 1.85477C12.9814 1.9935 14.1772 3.82009 14.3208 4.02818L14.4164 4.16691L11.8812 4.76807ZM12.1682 2.08599C12.1443 2.08599 12.1204 2.08599 12.0964 2.08599C11.7377 2.29408 11.8812 3.612 12.0725 4.49061L14.0337 4.00506C13.6271 3.40391 12.6944 2.17847 12.216 2.08599C12.1921 2.08599 12.1921 2.08599 12.1682 2.08599Z" fill="black"/>
<path d="M10.9962 6.57104C10.9962 6.57104 10.5178 3.54213 11.1636 3.26468C11.8094 2.98722 13.2922 5.36872 13.2922 5.36872L10.9962 6.57104Z" fill="#F2F2F2"/>
<path d="M10.9005 6.73312L10.8766 6.57127C10.7809 6.03948 10.3982 3.42676 11.1158 3.14931C11.8333 2.84873 13.1487 4.88341 13.3879 5.2996L13.4597 5.39208L10.9005 6.73312ZM11.2832 3.33428C11.2593 3.33428 11.2354 3.33428 11.2114 3.3574C10.8288 3.51925 10.9005 5.16087 11.0918 6.3863L13.1248 5.32272C12.5747 4.42098 11.6898 3.33428 11.2832 3.33428Z" fill="black"/>
<path d="M15.0621 3.14962C15.0621 3.14962 13.5792 1.18431 12.7421 1.48488C11.905 1.78546 14.9425 6.75656 14.9425 6.75656L16.0905 5.27679L15.0621 3.14962Z" fill="#F2F2F2"/>
<path d="M14.9428 6.98768L14.8471 6.84895C14.584 6.40964 12.2162 2.47901 12.5271 1.60039C12.5749 1.48479 12.6467 1.41542 12.7184 1.3923C13.6034 1.04548 15.0145 2.87207 15.158 3.08016V3.10328L16.2104 5.29982L14.9428 6.98768ZM12.9576 1.57727C12.9098 1.57727 12.838 1.57727 12.7902 1.60039C12.7663 1.60039 12.7663 1.62352 12.7424 1.66976C12.5271 2.24779 13.9143 4.86051 14.9667 6.57149L15.9473 5.27669L14.9428 3.21889C14.584 2.71022 13.5795 1.57727 12.9576 1.57727Z" fill="black"/>
<path d="M15.7317 4.86026C15.7317 4.86026 14.0336 2.98742 14.1771 2.36315C14.3206 1.73887 16.4492 3.95852 16.4492 3.95852L15.7317 4.86026Z" fill="#F2F2F2"/>
<path d="M15.7319 5.0222L15.6362 4.92971C15.4688 4.74474 13.9142 3.01064 14.0577 2.34012C14.0816 2.20139 14.1773 2.15515 14.2251 2.15515C14.7034 2.03954 16.1146 3.44995 16.5212 3.88925L16.5929 3.95862L15.7319 5.0222ZM14.2969 2.36324C14.2012 2.77943 15.0861 3.95862 15.708 4.67538L16.282 3.95862C15.397 3.01064 14.4643 2.27076 14.2969 2.36324Z" fill="black"/>
<path d="M17.5491 10.5947C17.5491 10.5947 15.4204 3.40399 16.114 3.58896C16.8794 3.77393 19.2711 8.35196 19.295 9.0456C19.319 9.71612 17.5491 10.5947 17.5491 10.5947Z" fill="#F2F2F2"/>
<path d="M17.4776 10.7796L17.4297 10.6409C16.9753 9.09175 15.4924 3.98192 15.9469 3.54262C15.9947 3.49638 16.0664 3.47325 16.1382 3.49638C17.0231 3.70447 19.3909 8.42123 19.4149 9.04551C19.4388 9.78539 17.7885 10.6178 17.5971 10.7334L17.4776 10.7796ZM16.0904 3.70447C15.899 4.09753 16.7122 7.38077 17.5971 10.4328C18.1233 10.1553 19.1757 9.48481 19.1518 9.04551C19.1518 8.39811 16.8557 3.98192 16.0904 3.70447Z" fill="black"/>
<path d="M17.8845 9.55404C17.8845 9.55404 17.3104 6.38641 17.7649 6.27081C18.2193 6.17832 19.2238 8.0974 19.2477 8.88352C19.2717 9.66965 17.8845 9.55404 17.8845 9.55404Z" fill="#F2F2F2"/>
<path d="M18.076 9.66971C17.9564 9.66971 17.8847 9.66971 17.8847 9.66971H17.789L17.7651 9.57722C17.5498 8.35179 17.2628 6.27086 17.7412 6.17838C17.8368 6.15526 17.9564 6.2015 18.076 6.27086C18.6022 6.66393 19.3436 8.16682 19.3675 8.88358C19.3675 9.06855 19.2958 9.25352 19.1762 9.36913C18.8892 9.64659 18.363 9.66971 18.076 9.66971ZM17.9803 9.43849C18.1956 9.43849 18.7457 9.43849 19.0088 9.20728C19.1045 9.11479 19.1284 9.02231 19.1284 8.88358C19.1045 8.2593 18.3869 6.77953 17.9325 6.43271C17.8608 6.38647 17.8129 6.36335 17.789 6.36335C17.6216 6.5252 17.7412 8.05121 17.9803 9.43849Z" fill="black"/>
<path d="M15.827 10.3632C15.827 10.3632 14.6551 6.59437 14.8225 5.20709C14.9899 3.8198 14.7747 2.15506 16.2576 4.95275C17.86 7.98165 17.5013 11.288 17.5013 11.288L15.5161 10.3632H15.827Z" fill="#F2F2F2"/>
<path d="M17.5971 11.473L15.0141 10.2707L15.6359 10.2476C15.4207 9.53082 14.5357 6.45568 14.6792 5.184C14.7031 4.95279 14.7271 4.72157 14.751 4.49036C14.7988 3.81984 14.8227 3.38053 15.1097 3.31117C15.325 3.26492 15.6359 3.51926 16.3534 4.88342C17.9559 7.91232 17.621 11.2418 17.621 11.288L17.5971 11.473ZM15.9708 10.4326L17.4058 11.1031C17.4536 10.4094 17.5254 7.58862 16.1621 4.99903C15.4446 3.65799 15.2293 3.54238 15.1815 3.54238C15.0858 3.58862 15.0619 4.14354 15.038 4.51348C15.0141 4.74469 15.0141 4.97591 14.9662 5.20712C14.7988 6.54816 15.9468 10.2707 15.9468 10.3169L15.9708 10.4326Z" fill="black"/>
<path d="M14.751 6.1787C14.751 6.1787 12.0005 1.92436 10.972 2.15558C9.9436 2.38679 10.5176 8.30587 10.5176 8.30587L14.6792 6.24806L14.751 6.1787Z" fill="#F2F2F2"/>
<path d="M10.4221 8.49065V8.3288C10.3264 7.31146 9.89591 2.29412 10.9483 2.03978C12.0245 1.78545 14.5598 5.66984 14.8468 6.10915L14.8946 6.17851L14.7272 6.34036L10.4221 8.49065ZM11.0679 2.24788C11.0439 2.24788 11.02 2.24788 10.9961 2.24788C10.3503 2.3866 10.4221 5.85481 10.6373 8.12071L14.6076 6.15539C13.5792 4.58314 11.7854 2.24788 11.0679 2.24788Z" fill="black"/>
<path d="M13.4119 5.83128C13.4119 5.83128 13.2445 3.81972 13.6272 3.63475C14.4404 3.24168 16.6647 8.02781 16.2342 8.35151C15.8037 8.67521 13.7946 9.29949 13.7946 9.29949L13.4119 5.83128Z" fill="#F2F2F2"/>
<path d="M13.675 9.4613L13.2684 5.85437C13.2205 5.36882 13.1249 3.75032 13.5554 3.54223C13.8663 3.38038 14.2968 3.7272 14.823 4.53645C15.5644 5.64628 16.7125 8.12026 16.2819 8.44396C15.8514 8.76766 13.8902 9.39194 13.7946 9.41506L13.675 9.4613ZM13.5315 5.83125L13.8902 9.16073C14.536 8.95263 15.8514 8.49021 16.1624 8.25899C16.3537 7.95841 15.11 5.022 14.1533 4.00466C13.9381 3.77344 13.7706 3.68096 13.675 3.7272C13.4836 3.81969 13.4597 4.88327 13.5315 5.83125Z" fill="black"/>
<path d="M16.5452 9.39174C16.5452 9.39174 13.8904 4.90619 12.9097 5.25301C11.9291 5.59983 13.1489 11.4033 13.1489 11.4033L16.2103 10.2472L16.5452 9.39174Z" fill="#F2F2F2"/>
<path d="M13.0534 11.5653L13.0294 11.4266C12.8142 10.4324 11.8575 5.50753 12.862 5.13759C13.8905 4.79077 16.1865 8.58268 16.6409 9.34568L16.6649 9.39192L16.2822 10.3399L13.0534 11.5653ZM13.0294 5.34568C13.0055 5.34568 12.9816 5.34568 12.9577 5.3688C12.3119 5.5769 12.7664 9.02198 13.2208 11.2416L16.1148 10.1549L16.4018 9.41505C15.4451 7.77343 13.723 5.34568 13.0294 5.34568Z" fill="black"/>
<path d="M10.4941 12.444C10.4941 12.444 11.977 11.9585 13.5795 9.7157C15.3254 7.31108 16.0669 5.2764 17.0714 10.1781C17.9085 14.2706 12.7184 15.6117 12.7184 15.6117L10.4941 12.444Z" fill="#F2F2F2"/>
<path d="M12.6945 15.7735L10.3267 12.3978L10.4702 12.3515C10.4941 12.3515 11.953 11.8429 13.5077 9.66945C13.7229 9.36887 13.9143 9.0683 14.1056 8.79084C14.8231 7.75038 15.3493 6.98737 15.8755 7.07986C16.4016 7.17234 16.7843 8.07408 17.2148 10.1781C18.0519 14.34 12.8141 15.7273 12.7662 15.7504L12.6945 15.7735ZM10.6854 12.5134L12.7901 15.496C13.4359 15.3111 17.7171 13.8775 16.9757 10.2244C16.593 8.32841 16.2103 7.38044 15.8276 7.31107C15.445 7.24171 14.9188 8.02783 14.2969 8.92957C14.1056 9.20703 13.9143 9.5076 13.6751 9.80818C12.3357 11.6579 11.092 12.3284 10.6854 12.5134Z" fill="black"/>
<path d="M8.22168 15.2185C8.89136 13.0913 9.03487 10.3399 10.9722 10.2474C12.9095 10.1549 14.4162 15.1029 14.4162 15.1029L8.22168 15.2185Z" fill="#F2F2F2"/>
<path d="M8.0542 15.3343L8.10203 15.1725C8.24554 14.71 8.36512 14.2014 8.48471 13.7389C8.91522 12.0048 9.36965 10.2014 10.9482 10.1089C10.9721 10.1089 10.996 10.1089 11.0199 10.1089C12.9812 10.1089 14.464 14.8488 14.5358 15.0337L14.5836 15.1725L8.0542 15.3343ZM11.0199 10.3632C10.996 10.3632 10.996 10.3632 10.9721 10.3632C9.56099 10.4326 9.15439 12.0742 8.72388 13.8083C8.62821 14.2476 8.50863 14.6869 8.38904 15.1031L14.2727 14.9875C13.9857 14.1782 12.6224 10.3632 11.0199 10.3632Z" fill="black"/>
<path d="M17.3345 14.8489C17.2867 14.7795 15.5407 13.2072 16.4735 11.3113C17.4063 9.41534 18.9848 7.70436 19.7023 7.61187C20.4198 7.51938 19.5588 11.6812 19.5588 11.6812L17.3345 14.8489Z" fill="#F2F2F2"/>
<path d="M17.3344 15.0569L17.2149 14.8951C16.6887 14.3633 15.5406 12.9298 16.3538 11.265C17.2627 9.41532 18.8412 7.61186 19.6544 7.49625C19.7501 7.47313 19.8218 7.51937 19.8936 7.58873C20.3719 8.07428 19.774 11.1032 19.6305 11.7043L19.6066 11.7506L17.3344 15.0569ZM19.7022 7.70434C19.0565 7.79683 17.5019 9.43845 16.5691 11.3575C15.8516 12.8142 16.8083 14.109 17.3105 14.6639L19.4152 11.6119C19.7022 10.2708 20.0371 8.02804 19.7262 7.72746L19.7022 7.70434Z" fill="black"/>
<path d="M16.4731 15.8891C16.7362 14.4787 16.8319 13.207 18.5061 11.0105C20.4434 8.44399 20.7543 9.34572 19.5824 14.3399C18.7931 17.6925 16.4731 15.8891 16.4731 15.8891Z" fill="#F2F2F2"/>
<path d="M17.8125 16.4903C17.071 16.4903 16.4492 16.0047 16.4013 15.9816L16.3535 15.9354L16.3774 15.866C16.4013 15.7504 16.4253 15.6348 16.4492 15.4961C16.6644 14.2013 16.8797 12.9758 18.4343 10.918C19.2953 9.78509 19.7976 9.36891 20.1324 9.50764C20.5151 9.66949 20.6108 10.5712 19.7258 14.34C19.4628 15.4961 18.9844 16.1897 18.3147 16.3978C18.1234 16.4672 17.956 16.4903 17.8125 16.4903ZM16.6166 15.8198C16.8079 15.9585 17.5494 16.3978 18.2191 16.1666C18.7931 15.9585 19.2236 15.3342 19.4628 14.2706C20.2999 10.6637 20.2281 9.80822 19.9889 9.71573C19.8933 9.66949 19.5823 9.73885 18.5778 11.0568C17.071 13.0452 16.8558 14.2475 16.6405 15.5192C16.6405 15.6348 16.6166 15.7273 16.6166 15.8198Z" fill="black"/>
<path d="M6.14111 4.69857C6.14111 4.69857 7.93491 1.60031 8.67634 2.01649C9.41778 2.43268 8.96335 5.25349 8.96335 5.25349L6.14111 4.69857Z" fill="#F2F2F2"/>
<path d="M9.05895 5.39211L5.94971 4.76784L6.02146 4.62911C6.16496 4.37477 7.52825 2.08576 8.36535 1.85454C8.48494 1.83142 8.60452 1.83142 8.72411 1.87766C9.51338 2.31697 9.10678 4.95281 9.05895 5.25339V5.39211ZM6.30847 4.62911L8.84369 5.13778C9.01112 4.05107 9.05895 2.38633 8.60452 2.132C8.55669 2.10888 8.50885 2.10888 8.4371 2.132C7.83917 2.27073 6.78681 3.8661 6.30847 4.62911Z" fill="black"/>
<path d="M14.6553 17.4386C14.6553 17.4386 14.6075 16.6755 14.8945 15.9125C15.1815 15.1495 16.1621 14.664 16.8796 14.1091C20.5629 11.1727 18.3625 16.9992 17.071 17.5079C15.7794 18.0166 14.6553 17.4386 14.6553 17.4386Z" fill="#F2F2F2"/>
<path d="M15.9707 17.8314C15.2054 17.8314 14.6553 17.5539 14.6075 17.5308L14.5357 17.5077V17.4383C14.5357 17.4152 14.4879 16.6291 14.7749 15.8661C14.9901 15.288 15.612 14.8487 16.2099 14.4326C16.4252 14.2938 16.6165 14.1551 16.8078 13.9933C17.7167 13.2765 18.3146 13.0222 18.6973 13.2071C18.9365 13.3227 19.0561 13.6002 19.0321 14.0164C18.9843 15.1493 17.9559 17.2765 17.1188 17.6002C16.7122 17.7852 16.3295 17.8314 15.9707 17.8314ZM14.7749 17.369C15.014 17.4846 15.9707 17.8083 17.047 17.4152C17.7167 17.1609 18.7691 15.1724 18.8169 14.0395C18.8169 13.8083 18.793 13.5308 18.6256 13.4615C18.4581 13.3921 18.0515 13.3921 16.9992 14.2245C16.8078 14.3863 16.5926 14.525 16.3773 14.6638C15.8033 15.0568 15.2293 15.4499 15.038 15.9817C14.7988 16.5597 14.7749 17.1609 14.7749 17.369Z" fill="black"/>
<path d="M6.33203 6.22403C6.33203 6.22403 9.15427 1.76161 10.111 2.17779C11.0676 2.59398 11.0437 8.92924 11.0437 8.92924L6.37987 6.31652L6.33203 6.22403Z" fill="#F2F2F2"/>
<path d="M11.1393 9.13759L6.28414 6.40926L6.16455 6.22429L6.21239 6.15493C6.69073 5.39192 9.13029 1.64626 10.1348 2.06244C11.1393 2.47863 11.1393 8.25898 11.1393 8.9295V9.13759ZM6.47548 6.22429L10.9241 8.7214C10.9241 6.29366 10.7088 2.54799 10.0631 2.27054C9.44122 2.0162 7.55175 4.53643 6.47548 6.22429Z" fill="black"/>
<path d="M12.6704 19.1956C12.6704 19.1956 13.1248 17.8546 14.0576 17.4846C14.9904 17.1147 20.8023 14.8026 17.8605 17.4846C14.9186 20.1667 14.1294 19.8199 14.1294 19.8199L12.6704 19.1956Z" fill="#F2F2F2"/>
<path d="M14.225 19.9584C14.1293 19.9584 14.0815 19.9353 14.0815 19.9353L12.5029 19.2416L12.5268 19.1491C12.5508 19.1029 13.0291 17.7387 13.9858 17.3688C18.3148 15.6578 18.6257 16.0971 18.7214 16.259C18.8888 16.5133 18.6257 16.9064 17.9082 17.5769C15.6122 19.704 14.5837 19.9584 14.225 19.9584ZM14.1771 19.7272C14.1771 19.7272 15.0142 19.9353 17.7647 17.3919C18.6497 16.5827 18.554 16.3977 18.5301 16.3746C18.5062 16.3283 18.1235 15.9815 14.0815 17.5769C13.34 17.8775 12.9095 18.8254 12.7899 19.126L14.1771 19.7272Z" fill="black"/>
<path d="M10.4224 20.3286C9.20261 20.2824 7.86325 19.8893 7.43274 19.0338C7.00223 18.2015 7.05006 17.6234 9.27437 18.3171C11.4987 19.0107 14.6797 18.5483 14.9667 18.8951C15.5407 19.5425 13.4121 20.4211 10.4224 20.3286Z" fill="#F2F2F2"/>
<path d="M10.8291 20.4675C10.6856 20.4675 10.5421 20.4675 10.3986 20.4675C9.27449 20.4444 7.79162 20.0513 7.31327 19.1264C7.14585 18.7796 6.97843 18.3634 7.19369 18.1091C7.45678 17.8316 8.10254 17.8548 9.29841 18.2478C10.6139 18.6409 12.2163 18.664 13.4122 18.664C14.4406 18.664 14.895 18.6871 15.0385 18.849C15.1581 18.9877 15.1821 19.1727 15.1103 19.3345C14.8472 19.8894 13.1491 20.4675 10.8291 20.4675ZM7.7677 18.1322C7.55245 18.1322 7.43286 18.1785 7.38503 18.2478C7.28936 18.3634 7.33719 18.6178 7.52853 19.0108C7.93512 19.797 9.27449 20.19 10.3986 20.2363C12.9577 20.3056 14.6798 19.6814 14.919 19.2189C14.9668 19.1264 14.9429 19.0571 14.8711 18.9877C14.7755 18.8952 14.0579 18.8952 13.4122 18.8721C12.2163 18.8721 10.566 18.849 9.22666 18.4328C8.50914 18.2016 8.05471 18.1322 7.7677 18.1322Z" fill="black"/>
<path d="M5.4235 3.35793C5.4235 3.35793 6.76287 1.32325 7.62389 1.60071C8.48491 1.87816 5.75835 6.96487 5.75835 6.96487L4.51465 5.53134L5.4235 3.35793Z" fill="#F2F2F2"/>
<path d="M5.80614 7.17272L4.39502 5.55422L5.32779 3.28833C5.4713 3.08023 6.76283 1.18428 7.67168 1.48486C7.74344 1.50798 7.81519 1.55422 7.86302 1.66983C8.22178 2.54844 6.11706 6.54844 5.87789 6.98775L5.80614 7.17272ZM4.68203 5.50798L5.7583 6.75653C6.69108 4.99931 7.88694 2.34035 7.64777 1.78544C7.62385 1.73919 7.59993 1.73919 7.59993 1.71607C6.97808 1.50798 5.90181 2.84902 5.54305 3.40393L4.68203 5.50798Z" fill="black"/>
<path d="M4.87374 5.06846C4.87374 5.06846 6.42836 3.12626 6.26094 2.50198C6.09352 1.87771 4.08447 4.18984 4.08447 4.18984L4.87374 5.06846Z" fill="#F2F2F2"/>
<path d="M4.87368 5.25338L3.91699 4.21291L3.98874 4.14355C4.37142 3.68112 5.71079 2.20135 6.18913 2.31696C6.23697 2.31696 6.33264 2.3632 6.38047 2.50193C6.57181 3.17245 5.13677 4.9528 4.96935 5.16089L4.87368 5.25338ZM4.25183 4.18979L4.87368 4.88343C5.47161 4.14355 6.26088 2.94124 6.1413 2.52505C6.1413 2.50193 6.1413 2.50193 6.1413 2.50193C5.97388 2.45569 5.08894 3.21869 4.25183 4.18979Z" fill="black"/>
<path d="M3.36673 10.8945C3.36673 10.8945 5.08877 3.4957 4.39517 3.8194C3.15147 4.44368 1.3816 8.69801 1.40551 9.39166C1.42943 10.0853 3.36673 10.8945 3.36673 10.8945Z" fill="#F2F2F2"/>
<path d="M3.46235 11.0567L3.31885 11.0104C3.10359 10.9179 1.3098 10.1318 1.28588 9.41504C1.26196 8.65204 3.07967 4.35146 4.3712 3.7503C4.44296 3.70406 4.51471 3.72718 4.58646 3.77343C5.04089 4.12025 3.98853 8.90637 3.51018 10.9411L3.46235 11.0567ZM4.41904 3.9584C3.19926 4.6058 1.50113 8.81389 1.52505 9.39192C1.54897 9.80811 2.55349 10.4093 3.29493 10.733C3.98853 7.65782 4.58646 4.3977 4.41904 3.9584Z" fill="black"/>
<path d="M2.60112 9.55394C2.60112 9.55394 2.93596 6.57129 2.50545 6.50192C2.07494 6.43256 1.26176 8.25915 1.28567 8.99903C1.28567 9.71579 2.60112 9.55394 2.60112 9.55394Z" fill="#F2F2F2"/>
<path d="M2.29033 9.69262C2.00333 9.69262 1.62065 9.64638 1.38148 9.46141C1.23797 9.3458 1.16622 9.18395 1.16622 8.99898C1.14231 8.32846 1.74024 6.89493 2.19466 6.50187C2.31425 6.40938 2.40992 6.36314 2.50559 6.38626C2.98393 6.45563 2.84043 8.42094 2.69693 9.55389V9.64638L2.60126 9.6695C2.60126 9.6695 2.45775 9.69262 2.29033 9.69262ZM2.45775 6.61748C2.45775 6.61748 2.40992 6.6406 2.33817 6.68684C1.93158 7.03366 1.35756 8.39782 1.38148 8.99898C1.38148 9.11459 1.42931 9.20707 1.52498 9.27644C1.76415 9.46141 2.21858 9.48453 2.48167 9.46141C2.62518 8.16661 2.64909 6.73308 2.45775 6.61748Z" fill="black"/>
<path d="M5.13692 10.571C5.13692 10.571 6.04577 6.75595 5.8066 5.39179C5.54351 4.00451 5.6631 2.33977 4.37156 5.20682C2.96045 8.30509 3.53446 11.5883 3.53446 11.5883L5.44784 10.571H5.13692Z" fill="#F2F2F2"/>
<path d="M3.41465 11.7504L3.39074 11.5885C3.39074 11.5654 2.84064 8.23592 4.25176 5.13766C4.89752 3.72725 5.16061 3.47292 5.39978 3.51916C5.66287 3.5654 5.73463 4.00471 5.8303 4.67523C5.85421 4.90644 5.90205 5.13766 5.92596 5.36887C6.16514 6.61743 5.47154 9.73881 5.30412 10.4556L5.92596 10.4325L3.41465 11.7504ZM5.35195 3.75037C5.30412 3.75037 5.08886 3.86598 4.46701 5.25326C3.27115 7.8891 3.51032 10.7099 3.60599 11.4036L4.99319 10.6637L5.01711 10.5481C5.01711 10.5018 5.92596 6.75615 5.68679 5.41511C5.63896 5.1839 5.61504 4.95269 5.59112 4.72147C5.51937 4.35153 5.44762 3.79662 5.35195 3.75037Z" fill="black"/>
<path d="M7.24122 5.97045C7.24122 5.97045 7.28905 3.95889 6.88246 3.77392C6.04536 3.40397 4.13198 8.28259 4.5864 8.58316C5.04083 8.88374 7.09772 9.43866 7.09772 9.43866L7.24122 5.97045Z" fill="#F2F2F2"/>
<path d="M7.2174 9.60029L7.07389 9.55404C6.97823 9.53092 4.99309 8.99913 4.53866 8.67543C4.10815 8.37485 5.08876 5.8315 5.78236 4.65231C6.26071 3.84306 6.64338 3.51936 6.95431 3.65809C7.38482 3.84306 7.38482 5.46156 7.38482 5.97023L7.2174 9.60029ZM6.8108 3.86618C6.71514 3.86618 6.57163 3.98179 6.38029 4.16676C5.49535 5.23034 4.443 8.213 4.65825 8.49046C4.96918 8.69855 6.23679 9.09161 6.97822 9.27659L7.12173 5.94711C7.14565 4.99913 7.02606 3.93555 6.83472 3.86618H6.8108Z" fill="black"/>
<path d="M4.34717 9.6462C4.34717 9.6462 6.71498 5.06816 7.7195 5.34562C8.72403 5.64619 7.88692 11.4959 7.88692 11.4959L4.75376 10.4554L4.34717 9.6462Z" fill="#F2F2F2"/>
<path d="M7.98255 11.6811L4.65805 10.5944L4.22754 9.6695L4.25146 9.62326C4.65805 8.83713 6.71493 4.95274 7.76729 5.27644C8.81965 5.57702 8.14997 10.5712 8.00647 11.5655L7.98255 11.6811ZM4.82547 10.3863L7.76729 11.3574C8.07822 9.11459 8.31739 5.6695 7.67163 5.46141C7.02586 5.27644 5.37557 7.91228 4.46671 9.64638L4.82547 10.3863Z" fill="black"/>
<path d="M10.1828 13.4383C10.1828 13.4383 8.81951 12.1666 7.21705 9.87761C5.47109 7.42675 4.68182 5.48455 4.15564 10.2707C3.70122 14.4094 8.07807 15.7967 8.07807 15.7967L10.1828 13.4383Z" fill="#F2F2F2"/>
<path d="M8.10226 15.9586L8.03051 15.9355C7.98268 15.9124 3.5819 14.4788 4.03633 10.2939C4.25159 8.23607 4.53859 7.35746 4.99302 7.24185C5.47137 7.12624 5.97363 7.86613 6.71506 8.97596C6.9064 9.25341 7.09774 9.53087 7.31299 9.83145C8.89153 12.0742 10.2548 13.3459 10.2787 13.369L10.3505 13.4384L8.10226 15.9586ZM5.08869 7.44994C5.06477 7.44994 5.06477 7.44994 5.04086 7.44994C4.72993 7.51931 4.46684 8.49041 4.2755 10.2939C3.86891 13.9933 7.48042 15.4731 8.03051 15.6812L10.0156 13.4615C9.70472 13.1609 8.48494 11.9124 7.09774 9.97018C6.88248 9.6696 6.69115 9.36902 6.49981 9.11468C5.94971 8.25919 5.39961 7.44994 5.08869 7.44994Z" fill="black"/>
<path d="M13.771 8.90643C13.4361 8.16655 12.0968 5.27638 10.6617 5.64632C9.01145 6.0625 7.07415 8.05094 6.81106 9.43823C6.50013 11.1261 8.27001 13.6001 8.27001 13.6001H10.9966C10.9966 13.6001 14.7755 11.1723 13.771 8.90643Z" fill="#F2F2F2"/>
<path d="M11.0443 13.7157H8.22202L8.17419 13.6463C8.10244 13.5539 6.3804 11.103 6.69132 9.41513C6.97833 7.93536 8.98738 5.94692 10.6138 5.53073C11.977 5.18391 13.2446 7.44981 13.8665 8.86021C14.9189 11.1955 11.2356 13.6001 11.0682 13.6926L11.0443 13.7157ZM8.34161 13.4845H10.9486C11.3074 13.2533 14.5601 11.0105 13.6512 8.9527C13.1729 7.88912 11.9292 5.43825 10.6855 5.76195C9.13088 6.15501 7.19358 8.05096 6.93049 9.46137C6.6674 10.9411 8.10244 13.1145 8.34161 13.4845Z" fill="black"/>
<path d="M13.627 15.5656C12.742 13.2765 12.3833 10.2708 10.2786 10.2476C8.17385 10.2245 6.8584 15.7274 6.8584 15.7274L13.627 15.5656Z" fill="#F2F2F2"/>
<path d="M6.69092 15.8431L6.71484 15.7044C6.76267 15.4732 8.07812 10.1553 10.2546 10.1553C10.2546 10.1553 10.2546 10.1553 10.2785 10.1553C12.0245 10.1784 12.6224 12.1206 13.2203 13.9934C13.3877 14.5252 13.5552 15.057 13.7465 15.5426L13.7943 15.7044L6.69092 15.8431ZM10.2785 10.3634C8.48471 10.3634 7.24101 14.7333 7.02576 15.5888L13.4834 15.4501C13.316 14.9876 13.1486 14.5021 13.0051 14.0397C12.4071 12.1668 11.8331 10.3865 10.2785 10.3634Z" fill="black"/>
<path d="M10.6373 17.5308C10.5416 16.8834 10.5416 15.0337 11.1156 13.8545C11.6179 12.8603 13.029 11.3574 13.9379 10.6869C14.9663 9.94702 16.6166 12.6291 16.8558 14.2476C17.1189 16.0973 13.0529 18.0857 13.0529 18.0857L10.6373 17.5308Z" fill="#F2F2F2"/>
<path d="M13.0531 18.2015L10.5179 17.6003V17.531C10.3983 16.7911 10.4222 14.9645 10.9962 13.7853C11.4985 12.768 12.9096 11.2651 13.8424 10.5714C14.0816 10.4096 14.3447 10.3633 14.6556 10.5021C15.6601 10.8951 16.7603 12.8836 16.9516 14.2246C17.2386 16.1206 13.2445 18.109 13.077 18.2015H13.0531ZM10.7331 17.4385L13.0292 17.9703C13.4358 17.7622 16.9756 15.9125 16.7364 14.2709C16.545 13.0223 15.4927 11.1032 14.5838 10.7333C14.3686 10.6408 14.1772 10.6639 14.0098 10.7795C13.101 11.45 11.7138 12.9298 11.2354 13.9009C10.6853 14.9876 10.6375 16.6755 10.7331 17.4385Z" fill="black"/>
<path d="M3.91704 15.1263C3.96488 15.057 5.61517 13.4153 4.56281 11.5656C3.51045 9.71593 1.83624 8.05119 1.09481 7.98182C0.377288 7.91246 1.52532 12.0281 1.52532 12.0281L3.91704 15.1263Z" fill="#F2F2F2"/>
<path d="M3.91683 15.3342L3.82117 15.1955L1.40552 12.0741C1.2381 11.473 0.448831 8.4672 0.879342 7.98165C0.951094 7.91228 1.02285 7.88916 1.11851 7.88916C1.9317 7.98165 3.62983 9.69263 4.65827 11.5192C5.59104 13.1377 4.53868 14.6175 4.03642 15.1724L4.0125 15.1955L3.91683 15.3342ZM1.62078 11.9816L3.91683 14.9412C4.39518 14.3631 5.2562 13.0452 4.44301 11.6117C3.39065 9.73887 1.74036 8.16662 1.0946 8.09725C1.07068 8.09725 1.07068 8.09725 1.07068 8.12037C0.783673 8.42095 1.26202 10.6406 1.62078 11.9816Z" fill="black"/>
<path d="M4.82527 16.1201C4.46651 14.7097 4.29909 13.4611 2.48138 11.334C0.376661 8.85997 0.137489 9.7617 1.62036 14.6866C2.62488 18.016 4.82527 16.1201 4.82527 16.1201Z" fill="#F2F2F2"/>
<path d="M3.4861 16.7677C3.3426 16.7677 3.22301 16.7446 3.07951 16.7214C2.38591 16.5365 1.85973 15.866 1.52489 14.7099C0.400776 10.9873 0.424694 10.1087 0.80737 9.90064C1.11829 9.73879 1.64447 10.1319 2.60116 11.2417C4.27537 13.207 4.56238 14.4324 4.8733 15.7272C4.89722 15.8428 4.92114 15.9584 4.96897 16.0972L4.99289 16.1665L4.94505 16.2128C4.89722 16.2359 4.25145 16.7677 3.4861 16.7677ZM0.950873 10.1087C0.926956 10.1087 0.903039 10.1087 0.903039 10.1087C0.687783 10.2243 0.663866 11.0798 1.74014 14.6405C2.05107 15.7041 2.52941 16.3284 3.12734 16.4902C3.82094 16.6752 4.51454 16.2128 4.70588 16.0741C4.68196 15.9816 4.65805 15.8891 4.63413 15.7735C4.32321 14.5018 4.0362 13.3226 2.40983 11.3804C1.45314 10.2937 1.09438 10.1087 0.950873 10.1087Z" fill="black"/>
<path d="M6.73889 17.6003C6.73889 17.6003 6.73889 16.8373 6.40405 16.0974C6.06921 15.3575 5.04077 14.9182 4.29933 14.3633C0.424736 11.5887 3.0078 17.3228 4.32325 17.7621C5.66262 18.2246 6.73889 17.6003 6.73889 17.6003Z" fill="#F2F2F2"/>
<path d="M5.32765 18.0626C5.01673 18.0626 4.65797 18.0163 4.29921 17.9007C3.43819 17.6002 2.24232 15.473 2.14665 14.3632C2.12274 13.9701 2.21841 13.6926 2.43366 13.577C2.79242 13.3689 3.43819 13.6002 4.37096 14.2938C4.5623 14.4325 4.77755 14.5713 4.99281 14.71C5.61466 15.1031 6.26042 15.4961 6.4996 16.0741C6.83444 16.8372 6.83444 17.6002 6.83444 17.6233V17.6926L6.76269 17.7158C6.76269 17.7158 6.18867 18.0626 5.32765 18.0626ZM2.72067 13.7389C2.64892 13.7389 2.57716 13.762 2.55325 13.7851C2.38583 13.8776 2.36191 14.132 2.38583 14.34C2.4815 15.4268 3.67736 17.4383 4.37096 17.6695C5.44724 18.0395 6.38001 17.6464 6.61918 17.5308C6.61918 17.3227 6.54743 16.7215 6.28434 16.1435C6.06908 15.6348 5.44724 15.2418 4.87322 14.895C4.65797 14.7562 4.44271 14.6175 4.22746 14.4788C3.41427 13.8776 2.95984 13.7389 2.72067 13.7389Z" fill="black"/>
<path d="M10.7811 17.5312C10.8289 16.8838 10.7333 15.0341 10.0636 13.878C9.51349 12.9069 8.0067 11.4503 7.05001 10.826C5.97373 10.1324 4.49086 12.8607 4.34736 14.5023C4.20385 16.352 8.38937 18.1786 8.38937 18.1786L10.7811 17.5312Z" fill="#F2F2F2"/>
<path d="M8.38923 18.3172L8.3414 18.294C8.17398 18.2247 4.06021 16.3981 4.22763 14.5021C4.34722 13.1611 5.30391 11.1495 6.28451 10.7102C6.57152 10.5715 6.85853 10.5946 7.12162 10.7565C8.10223 11.4039 9.63293 12.8605 10.183 13.8547C10.8288 14.9877 10.9723 16.8374 10.9005 17.5773V17.6467L8.38923 18.3172ZM6.69111 10.8258C6.59544 10.8258 6.49977 10.849 6.4041 10.8952C5.51916 11.3114 4.58639 13.2536 4.49072 14.5021C4.3233 16.1669 7.98264 17.8779 8.41315 18.0628L10.6614 17.4386C10.7092 16.6756 10.5657 14.9877 9.96777 13.9241C9.41768 12.9761 7.93481 11.5426 6.97812 10.9183C6.88245 10.849 6.78678 10.8258 6.69111 10.8258Z" fill="black"/>
<path d="M12.4313 18.7098C13.0771 17.2763 13.2684 16.9526 11.7138 16.1896C10.3744 15.5422 10.6375 14.9179 9.36992 15.5191C6.21285 16.9757 7.74355 19.0335 7.74355 19.0335L12.4313 18.7098Z" fill="#F2F2F2"/>
<path d="M7.71965 19.1723L7.67181 19.126C7.6479 19.1029 7.0978 18.3399 7.33697 17.3919C7.55223 16.6289 8.22191 15.9584 9.3221 15.4497C10.1831 15.0567 10.3984 15.1723 10.8528 15.5422C11.0681 15.7041 11.3312 15.9121 11.7617 16.1434C13.3641 16.9295 13.1728 17.3688 12.5748 18.6867L12.527 18.8254L7.71965 19.1723ZM10.1592 15.4035C9.99179 15.4035 9.77653 15.4728 9.44169 15.6347C8.38933 16.1202 7.76748 16.7214 7.57614 17.4382C7.38481 18.1549 7.71965 18.7561 7.83923 18.941L12.3596 18.6173L12.3835 18.5711C12.9814 17.2532 13.0771 16.9988 11.6899 16.3283C11.2116 16.0971 10.9246 15.8659 10.7332 15.7041C10.494 15.496 10.3745 15.4035 10.1592 15.4035Z" fill="black"/>
<path d="M8.86768 19.265C8.86768 19.265 8.31758 17.947 7.36089 17.6002C6.4042 17.2765 0.47272 15.1956 3.55805 17.7621C6.64337 20.3286 7.43264 19.9586 7.43264 19.9586L8.86768 19.265Z" fill="#F2F2F2"/>
<path d="M7.31314 20.0971C6.93047 20.0971 5.87811 19.8428 3.48638 17.8544C2.72103 17.2301 2.45794 16.837 2.60144 16.5827C2.69711 16.4208 2.98412 15.9584 7.38489 17.4844C8.38942 17.8312 8.93951 19.1492 8.96343 19.2185L9.01127 19.311L7.48056 20.0509C7.45665 20.074 7.40881 20.0971 7.31314 20.0971ZM3.12762 16.6289C2.86453 16.6289 2.8167 16.6983 2.79278 16.6983C2.79278 16.7214 2.69711 16.9064 3.62988 17.6694C6.57171 20.0971 7.38489 19.8428 7.38489 19.8428L8.70034 19.1954C8.55684 18.8948 8.05458 17.9469 7.31314 17.6925C4.68224 16.8139 3.58205 16.6289 3.12762 16.6289Z" fill="black"/>
<path d="M11.1638 20.3289C12.3835 20.2364 13.699 19.774 14.0578 18.9185C14.4165 18.063 14.3687 17.4849 12.1683 18.2711C9.96791 19.0572 6.78691 18.7335 6.52382 19.0803C5.99764 19.7508 8.19803 20.537 11.1638 20.3289Z" fill="#F2F2F2"/>
<path d="M10.1832 20.4675C8.1502 20.4675 6.66733 20.005 6.38032 19.4964C6.28465 19.3345 6.30857 19.1495 6.42816 19.0108C6.57166 18.8258 7.02609 18.8027 8.05453 18.7565C9.22647 18.7102 10.8528 18.6178 12.1205 18.1553C13.2924 17.7391 13.9382 17.6698 14.2252 17.9472C14.4644 18.1784 14.3209 18.6178 14.1773 18.9646C13.7708 19.9357 12.3118 20.3519 11.1877 20.4443C10.8528 20.4675 10.518 20.4675 10.1832 20.4675ZM13.7229 18.0166C13.4598 18.0166 12.9815 18.1091 12.2161 18.3865C10.9007 18.849 9.27431 18.9415 8.07845 18.9877C7.43268 19.0108 6.71516 19.0571 6.64341 19.1495C6.57166 19.2189 6.57166 19.3114 6.61949 19.3808C6.88258 19.8432 8.65246 20.3981 11.1877 20.2131C12.3357 20.1206 13.6272 19.6813 13.986 18.8721C14.1534 18.4559 14.2013 18.2247 14.0817 18.1091C14.0099 18.0397 13.9143 18.0166 13.7229 18.0166Z" fill="black"/>
</svg>
