<svg width="17" height="21" viewBox="0 0 17 21" fill="none" xmlns="http://www.w3.org/2000/svg">
<path d="M16.9287 20.2108L15.8304 6.55673C15.8087 6.28737 15.5848 6.07984 15.3158 6.07984H12.3674V4.21733C12.3674 2.06268 10.6455 0.309753 8.50079 0.309753H8.43264C6.28796 0.309753 4.52021 2.06268 4.52021 4.21733V6.07984H1.61765C1.34864 6.07984 1.12472 6.28737 1.10304 6.55673L0.00168432 20.2493C-0.00994877 20.3937 0.0390616 20.5363 0.136807 20.6427C0.234553 20.7492 0.372222 20.8098 0.516294 20.8098H16.4171H16.4185C16.7037 20.8098 16.9348 20.5776 16.9348 20.2911C16.9348 20.2638 16.9327 20.2369 16.9287 20.2108ZM5.55273 4.21733C5.55273 2.63466 6.85729 1.34707 8.43264 1.34707H8.50079C10.0761 1.34707 11.3349 2.63466 11.3349 4.21733V6.07984H5.55273V4.21733Z" fill="#2C2A2B"/>
</svg>
