<svg width="15" height="18" viewBox="0 0 15 18" fill="none" xmlns="http://www.w3.org/2000/svg">
<path d="M12.5456 16.4012L11.7318 6.28387C11.7158 6.08428 11.5499 5.9305 11.3505 5.9305H9.16585V4.55044C9.16585 2.9539 7.89001 1.65503 6.30081 1.65503H6.25031C4.66116 1.65503 3.35131 2.9539 3.35131 4.55044V5.9305H1.20059C1.00126 5.9305 0.835344 6.08428 0.819277 6.28387L0.00320116 16.4297C-0.00541864 16.5367 0.0308967 16.6424 0.103323 16.7212C0.17575 16.8001 0.27776 16.845 0.384513 16.845H12.1666H12.1676C12.3789 16.845 12.5502 16.673 12.5502 16.4607C12.5502 16.4404 12.5486 16.4205 12.5456 16.4012ZM4.11638 4.55044C4.11638 3.37772 5.08302 2.42365 6.25031 2.42365H6.30081C7.4681 2.42365 8.40078 3.37772 8.40078 4.55044V5.9305H4.11638V4.55044Z" fill="white"/>
</svg>
