<svg width="44" height="41" viewBox="0 0 44 41" fill="none" xmlns="http://www.w3.org/2000/svg">
<path d="M28.1835 25.8996L40.6596 13.7205C43.2096 11.0347 43.65 6.39144 41.2072 4.68809C39.2877 3.41055 35.5994 5.54432 33.9417 7.16255L23.8164 14.5543C22.1587 16.1726 22.5998 20.534 23.9085 22.3225L9.77399 32.0456C8.29083 33.4083 7.45378 37.5388 12.8165 38.8674C15.2636 39.4736 15.7732 38.5803 17.9988 36.7033L28.1835 25.8996Z" fill="#D0CFD1"/>
<path d="M28.1835 22.9336L40.6597 10.7545C42.7536 8.71042 42.4046 5.30364 39.9617 3.60029C38.0423 2.32276 35.5994 2.57826 33.9417 4.1965L24.432 13.4798C22.7743 15.0981 22.5998 17.5679 23.9085 19.3565L9.86181 32.0466C8.37865 33.4093 8.37865 35.6237 9.77453 36.9864C11.1704 38.3492 13.5261 38.3492 14.8348 36.9012L28.1835 22.9336Z" fill="#E0E0E0"/>
<path d="M21.5392 27.5772L19.4407 25.6262L11.1048 33.2625C10.3399 33.9653 10.3399 35.1073 11.0598 35.8101C11.7797 36.5129 12.9946 36.5129 13.6695 35.7661L21.5392 27.5772Z" fill="#F55958"/>
<path opacity="0.1" d="M24.6952 26.2552L20.5946 22.5077L17.541 25.0628L21.9033 29.4916L24.6952 26.2552Z" fill="#231F20"/>
<path d="M19.1105 13.9057C19.983 13.0539 19.983 11.6913 19.0232 10.8396L9.51346 2.32267C9.16445 2.06717 8.72824 2.06717 8.37923 2.32267L8.29196 2.57818C7.94295 2.83369 7.94295 3.3447 8.29196 3.6854L15.1844 10.4138L13.7013 11.8616L6.8088 5.04813C6.45979 4.70743 6.02359 4.70743 5.67458 5.04813C5.32556 5.38883 5.32556 5.89984 5.67458 6.15535L12.567 12.8837L11.0839 14.3316L4.19142 7.60319C3.84241 7.26249 3.4062 7.26249 3.05719 7.60319C2.70818 7.94389 2.70818 8.36971 3.05719 8.71041L9.94966 15.4388L8.46651 16.8866L1.57404 10.1583C1.22502 9.81755 0.788822 9.81755 0.43981 10.1583L0.265345 10.3286C0.00360668 10.5841 -0.0836667 11.0951 0.265345 11.4358L8.98998 20.7192C9.86247 21.5709 11.2584 21.656 12.1308 20.8044C13.0033 19.9527 13.9294 19.8675 14.8019 20.8044L31.1097 38.1897C32.5056 39.6376 35.1638 39.2009 36.5598 37.753C37.9557 36.3903 37.9557 34.0907 36.4725 32.8132L19.1978 16.8866C18.238 16.12 18.238 14.7574 19.1105 13.9057Z" fill="#E0E0E0"/>
<path d="M35.2172 33.8533L21.4203 20.83L19.166 23.0307L32.3617 36.6408C33.1633 37.4721 34.4658 37.521 35.2673 36.6897C36.0688 35.8583 36.0688 34.6358 35.2172 33.8533Z" fill="#F55958"/>
</svg>
