<svg width="39" height="48" viewBox="0 0 39 48" fill="none" xmlns="http://www.w3.org/2000/svg">
<g clip-path="url(#clip0)">
<path d="M0.791016 3.3667C0.791016 2.26213 1.68645 1.3667 2.79102 1.3667L35.2798 1.3667C36.3844 1.3667 37.2798 2.26213 37.2798 3.3667V16.9075V45.7343C37.2798 46.8389 36.3844 47.7343 35.2798 47.7343H3.52991C3.15851 47.7343 2.79445 47.6309 2.47851 47.4356L1.90765 47.0829C1.42377 46.7838 1.09011 46.2929 0.990169 45.7329L0.822125 44.7913C0.801426 44.6753 0.791016 44.5578 0.791016 44.4399V3.3667Z" fill="#D0CFD1"/>
<rect x="0.791016" y="1.3667" width="34.0195" height="43.7713" rx="2" fill="#F2F2F2"/>
<path d="M27.4924 22.7941H8.77344V21.9989C8.77344 16.8299 12.964 12.6393 18.1328 12.6393C23.3018 12.6393 27.4924 16.8299 27.4924 21.9989V22.7941Z" fill="#F55958"/>
<path d="M18.0909 13.2852C17.2583 13.2852 16.4527 13.4016 15.6895 13.6186C19.3621 14.6628 22.0519 18.0419 22.0519 22.0495V22.7941H26.8552V22.0495C26.8552 17.2093 22.9312 13.2852 18.0909 13.2852Z" fill="#F55958"/>
<path d="M28.0559 21.5392H8.19794C8.00668 21.5392 7.85156 21.7054 7.85156 21.9107V23.2874C7.85156 23.4924 8.00668 23.6589 8.19794 23.6589H28.0559C28.2471 23.6589 28.4019 23.4924 28.4019 23.2874V21.9107C28.4019 21.7054 28.2471 21.5392 28.0559 21.5392Z" fill="#F55958"/>
<path d="M10.1132 33.876C10.0264 34.034 9.89178 34.0814 9.76543 34.0814C9.63909 34.0814 9.51275 34.034 9.42589 33.876L8.51711 32.1694V35.6297C8.51711 35.8433 8.25653 35.9538 8.00385 35.9538C7.74292 35.9538 7.49023 35.8433 7.49023 35.6297V30.6917C7.49023 30.3127 7.74292 30.1785 8.00385 30.1785C8.37498 30.1785 8.54115 30.2574 8.80173 30.7233L9.77367 32.4931L10.7453 30.7233C11.0062 30.2574 11.1799 30.1785 11.5514 30.1785C11.812 30.1785 12.0647 30.3127 12.0647 30.6917V35.6297C12.0647 35.8433 11.8041 35.9538 11.5514 35.9538C11.2905 35.9538 11.0378 35.8433 11.0378 35.6297V32.2326L10.1132 33.876Z" fill="#F55958"/>
<path d="M14.9237 32.659H16.1247C16.33 32.659 16.4484 32.8568 16.4484 33.07C16.4484 33.2516 16.3458 33.4651 16.1247 33.4651H14.9237V35.053H17.1594C17.3651 35.053 17.4835 35.2662 17.4835 35.5113C17.4835 35.7245 17.3809 35.9539 17.1594 35.9539H14.3469C14.1179 35.9539 13.8965 35.843 13.8965 35.6298V30.5023C13.8965 30.2891 14.1176 30.1782 14.3469 30.1782H17.1594C17.3809 30.1782 17.4835 30.4075 17.4835 30.6207C17.4835 30.8658 17.3651 31.079 17.1594 31.079H14.9237V32.659Z" fill="#F55958"/>
<path d="M21.6947 35.6298L19.996 32.4537V35.6298C19.996 35.8433 19.7354 35.9539 19.4824 35.9539C19.2218 35.9539 18.9688 35.8433 18.9688 35.6298V30.5023C18.9688 30.2812 19.2218 30.1785 19.4824 30.1785C19.8538 30.1785 20.0039 30.2575 20.249 30.7234L21.7737 33.6704V30.4944C21.7737 30.2733 22.0264 30.1782 22.2873 30.1782C22.54 30.1782 22.8006 30.2729 22.8006 30.4944V35.6298C22.8006 35.843 22.54 35.9539 22.2873 35.9539C22.0422 35.9539 21.829 35.8749 21.6947 35.6298Z" fill="#F55958"/>
<path d="M27.3748 30.4943C27.3748 30.2732 27.6275 30.1785 27.8881 30.1785C28.1411 30.1785 28.4017 30.2732 28.4017 30.4943V34.1919C28.4017 35.5113 27.5644 36.0012 26.5055 36.0012C25.4388 36.0012 24.6094 35.5113 24.6094 34.1919V30.4943C24.6094 30.2732 24.8621 30.1785 25.123 30.1785C25.3757 30.1785 25.6363 30.2732 25.6363 30.4943V34.1919C25.6363 34.8082 25.9604 35.1007 26.5055 35.1007C27.0507 35.1007 27.3745 34.8082 27.3745 34.1919V30.4943H27.3748Z" fill="#F55958"/>
<path d="M27.6888 21.0776H27.0969C26.8685 16.8758 23.7971 13.4181 19.7773 12.5997L19.895 11.4746C19.9336 11.1075 19.8137 10.7397 19.5667 10.4657C19.3198 10.1914 18.9664 10.0342 18.5973 10.0342H17.2947C16.9253 10.0342 16.5722 10.1917 16.325 10.4657C16.078 10.74 15.9584 11.1078 15.997 11.4746L16.1147 12.5997C12.0949 13.4181 9.02355 16.8755 8.79509 21.0773H8.20322C7.67976 21.0773 7.25391 21.5031 7.25391 22.0266V23.285C7.25391 23.8085 7.67976 24.2343 8.20322 24.2343H27.6885C28.2119 24.2343 28.6378 23.8085 28.6378 23.285V22.0266C28.6378 21.5034 28.2122 21.0776 27.6888 21.0776ZM17.2313 11.2819C17.2482 11.2634 17.2692 11.254 17.2947 11.254H18.5973C18.6225 11.254 18.6438 11.2634 18.6607 11.2819C18.6777 11.3008 18.6849 11.323 18.6821 11.3478L18.5682 12.4374C18.3626 12.4236 18.1552 12.4158 17.9462 12.4158C17.7368 12.4158 17.5297 12.4236 17.3242 12.4374L17.2099 11.3478C17.2074 11.323 17.2146 11.3008 17.2313 11.2819ZM27.4183 23.0148H8.47374V22.2971H11.0436C11.3807 22.2971 11.6537 22.0241 11.6537 21.6873C11.6537 21.3506 11.3807 21.0776 11.0436 21.0776H10.0171C10.2776 16.9301 13.734 13.6356 17.9459 13.6356C22.158 13.6356 25.6144 16.9301 25.8749 21.0776H8.39677C8.05972 21.0776 7.78701 21.3506 7.78701 21.6873C7.78701 22.0241 8.05972 22.2971 8.39677 22.2971H27.4183V23.0148Z" fill="#F55958"/>
</g>
<defs>
<clipPath id="clip0">
<rect width="38" height="47" fill="white" transform="translate(0.0488281 0.734314)"/>
</clipPath>
</defs>
</svg>
