<svg width="15" height="16" viewBox="0 0 15 16" fill="none" xmlns="http://www.w3.org/2000/svg">
<path fill-rule="evenodd" clip-rule="evenodd" d="M6.4479 0.935794L5.31888 2.06481C5.22738 2.15631 5.10328 2.20772 4.97389 2.20772H3.19561C2.37387 2.20772 1.70772 2.87387 1.70772 3.69561V5.47389C1.70772 5.60328 1.65631 5.72738 1.56481 5.81888L0.435794 6.9479C-0.145264 7.52896 -0.145265 8.47104 0.435794 9.0521L1.56481 10.1811C1.65631 10.2726 1.70772 10.3967 1.70772 10.5261V12.3044C1.70772 13.1261 2.37387 13.7923 3.19561 13.7923H4.97389C5.10328 13.7923 5.22738 13.8437 5.31888 13.9352L6.4479 15.0642C7.02896 15.6453 7.97104 15.6453 8.5521 15.0642L9.68112 13.9352C9.77262 13.8437 9.89672 13.7923 10.0261 13.7923H11.8044C12.6261 13.7923 13.2923 13.1261 13.2923 12.3044V10.5261C13.2923 10.3967 13.3437 10.2726 13.4352 10.1811L14.5642 9.0521C15.1453 8.47104 15.1453 7.52896 14.5642 6.9479L13.4352 5.81888C13.3437 5.72738 13.2923 5.60328 13.2923 5.47389V3.69561C13.2923 2.87387 12.6261 2.20772 11.8044 2.20772H10.0261C9.89672 2.20772 9.77262 2.15631 9.68112 2.06481L8.5521 0.935794C7.97104 0.354736 7.02896 0.354735 6.4479 0.935794ZM4.64648 10.1465L9.64648 5.14645L10.3536 5.85356L5.35359 10.8536L4.64648 10.1465ZM5 5.5V6.5H6V5.5H5ZM9 10.5H10V9.5H9V10.5Z" fill="white"/>
</svg>
