<svg width="11" height="19" viewBox="0 0 11 19" fill="none" xmlns="http://www.w3.org/2000/svg">
<path d="M8.99008 4.31862V13.9368C8.99008 15.7851 7.42791 17.2822 5.49919 17.2822C3.57048 17.2822 2.0083 15.7851 2.0083 13.9368V3.48226C2.0083 2.32809 2.98575 1.39136 4.19011 1.39136C5.39447 1.39136 6.37192 2.32809 6.37192 3.48226V12.264C6.37192 12.724 5.97919 13.1004 5.49919 13.1004C5.0192 13.1004 4.62647 12.724 4.62647 12.264V4.31862H3.31739V12.264C3.31739 13.4182 4.29484 14.3549 5.49919 14.3549C6.70355 14.3549 7.681 13.4182 7.681 12.264V3.48226C7.681 1.63391 6.11883 0.136826 4.19011 0.136826C2.26139 0.136826 0.699219 1.63391 0.699219 3.48226V13.9368C0.699219 16.4793 2.84612 18.5367 5.49919 18.5367C8.15227 18.5367 10.2992 16.4793 10.2992 13.9368V4.31862H8.99008Z" fill="white"/>
</svg>
