<svg width="29" height="27" viewBox="0 0 29 27" fill="none" xmlns="http://www.w3.org/2000/svg">
<g clip-path="url(#clip0)">
<path d="M26.9544 4.74205e-08H2.04428C1.19128 0.000409492 0.499786 0.663504 0.5 1.48116V25.3534C0.500427 26.1709 1.19235 26.8335 2.04556 26.8333H26.9544C27.8079 26.8335 28.4998 26.1706 28.5 25.3528C28.5 25.353 28.5 25.3526 28.5 25.3528V1.47994C28.4996 0.662481 27.8076 -0.000204675 26.9544 4.74205e-08Z" fill="#4267B2"/>
<path d="M19.832 26.8334V16.4565H23.4824L24.0293 12.3948H19.832V9.8079C19.832 8.63464 20.1719 7.8352 21.9275 7.8352H24.1523V4.21223C23.7653 4.1629 22.4372 4.05255 20.8918 4.05255C17.6653 4.05255 15.457 5.93927 15.457 9.40562V12.3948H11.8203V16.4565H15.457V26.8334H19.832Z" fill="white"/>
</g>
<defs>
<clipPath id="clip0">
<rect width="28" height="26.8333" fill="white" transform="translate(0.5)"/>
</clipPath>
</defs>
</svg>
