<svg width="17" height="17" viewBox="0 0 17 17" fill="none" xmlns="http://www.w3.org/2000/svg">
<path d="M8.45605 3.99039C5.39908 3.99039 2.62686 5.66289 0.581246 8.37947C0.414324 8.60203 0.414324 8.91296 0.581246 9.13553C2.62686 11.8554 5.39908 13.5279 8.45605 13.5279C11.513 13.5279 14.2852 11.8554 16.3309 9.1388C16.4978 8.91624 16.4978 8.6053 16.3309 8.38274C14.2852 5.66289 11.513 3.99039 8.45605 3.99039ZM8.67534 12.1172C6.64609 12.2449 4.97032 10.5724 5.09797 8.53984C5.2027 6.86407 6.56099 5.50578 8.23676 5.40105C10.266 5.2734 11.9418 6.9459 11.8141 8.97842C11.7061 10.6509 10.3478 12.0092 8.67534 12.1172ZM8.57388 10.5658C7.4807 10.6345 6.57736 9.73448 6.64937 8.6413C6.70501 7.73796 7.43816 7.00808 8.3415 6.94917C9.43468 6.88044 10.338 7.78051 10.266 8.87369C10.2071 9.7803 9.47395 10.5102 8.57388 10.5658Z" fill="#ABAAAA"/>
<path d="M16.3491 2.86057L1.29785 14.5139" stroke="#ABAAAA" stroke-width="1.2" stroke-linecap="round"/>
</svg>
