<svg width="14" height="14" viewBox="0 0 14 14" fill="none" xmlns="http://www.w3.org/2000/svg">
<path d="M6.66212 0.0271912C3.07806 0.0271912 0.162109 2.94314 0.162109 6.5272C0.162109 10.1113 3.07806 13.0272 6.66212 13.0272C10.2462 13.0272 13.1621 10.1113 13.1621 6.5272C13.1621 2.94314 10.2462 0.0271912 6.66212 0.0271912ZM7.08493 10.3838C6.77612 10.4353 6.16165 10.5639 5.84961 10.5897C5.58549 10.6116 5.33624 10.4604 5.18431 10.2434C5.03197 10.0264 4.99547 9.74864 5.08591 9.4995L6.31458 6.12096H5.03711C5.03601 5.41697 5.56406 4.89934 6.23944 4.70068C6.56174 4.60585 7.16222 4.47608 7.4746 4.49597C7.66175 4.50787 7.98797 4.62529 8.13991 4.84233C8.29224 5.05933 8.32875 5.33705 8.23831 5.58619L7.00964 8.96473H8.28672C8.28696 9.6679 7.7786 10.2682 7.08493 10.3838ZM7.4746 4.0897C7.02586 4.0897 6.6621 3.72589 6.6621 3.2772C6.6621 2.82845 7.02586 2.46469 7.4746 2.46469C7.92335 2.46469 8.28711 2.82845 8.28711 3.2772C8.28711 3.72592 7.92337 4.0897 7.4746 4.0897Z" fill="white"/>
</svg>
