<svg width="10" height="14" viewBox="0 0 10 14" fill="none" xmlns="http://www.w3.org/2000/svg">
<path d="M5.00677 0.180664C2.47601 0.180664 0.416992 2.24145 0.416992 4.77438C0.416992 5.53477 0.606938 6.28869 0.968033 6.9574L4.75577 13.8137C4.8062 13.9052 4.90229 13.9618 5.00677 13.9618C5.11125 13.9618 5.20733 13.9052 5.25776 13.8137L9.0469 6.95514C9.40659 6.28869 9.59654 5.53474 9.59654 4.77435C9.59654 2.24145 7.53752 0.180664 5.00677 0.180664ZM5.00677 7.07123C3.74139 7.07123 2.71189 6.04084 2.71189 4.77438C2.71189 3.50792 3.74139 2.47754 5.00677 2.47754C6.27214 2.47754 7.30164 3.50792 7.30164 4.77438C7.30164 6.04084 6.27214 7.07123 5.00677 7.07123Z" fill="#CCCCCC"/>
</svg>
