<svg width="26" height="26" viewBox="0 0 26 26" fill="none" xmlns="http://www.w3.org/2000/svg">
<path d="M24 0H2C0.895431 0 0 0.89543 0 2V24C0 25.1046 0.89543 26 2 26H24C25.1046 26 26 25.1046 26 24V2C26 0.895431 25.1046 0 24 0Z" fill="#61A8DE"/>
<path d="M18.9732 7.05075L4.33988 12.5503C3.8659 12.7285 3.89462 13.3845 4.38252 13.5234L8.10099 14.5824L9.48873 18.8292C9.63369 19.2728 10.2166 19.4073 10.554 19.075L12.4765 17.1818L16.2487 19.8522C16.7104 20.179 17.3678 19.9362 17.485 19.3956L19.9834 7.87583C20.1057 7.31156 19.5301 6.84143 18.9732 7.05075ZM17.1385 9.60728L10.3415 15.4041C10.2737 15.4619 10.2306 15.5419 10.2205 15.6286L9.95882 17.8722C9.95027 17.9453 9.8441 17.955 9.82144 17.8847L8.74476 14.5388C8.69544 14.3856 8.75974 14.2196 8.90105 14.1351L16.9277 9.33396C17.1123 9.22347 17.3013 9.46854 17.1385 9.60728Z" fill="white"/>
</svg>
