<svg width="26" height="26" viewBox="0 0 26 26" fill="none" xmlns="http://www.w3.org/2000/svg">
<path d="M24 0H2C0.895431 0 0 0.89543 0 2V24C0 25.1046 0.89543 26 2 26H24C25.1046 26 26 25.1046 26 24V2C26 0.895431 25.1046 0 24 0Z" fill="#683DAF"/>
<path d="M21.2228 8.38101L21.2176 8.36047C20.8023 6.68146 18.9299 4.87978 17.2104 4.50495L17.191 4.50096C14.4097 3.97038 11.5897 3.97038 8.80899 4.50096L8.78903 4.50495C7.07007 4.87978 5.19765 6.68146 4.78175 8.36047L4.77719 8.38101C4.26372 10.7258 4.26372 13.1037 4.77719 15.4485L4.78175 15.4691C5.17991 17.0764 6.9129 18.7953 8.56824 19.268V21.1423C8.56824 21.8206 9.39491 22.1538 9.86501 21.6643L11.764 19.6904C12.1758 19.7134 12.5879 19.7263 13 19.7263C14.4 19.7263 15.8006 19.5939 17.191 19.3286L17.2104 19.3246C18.9299 18.9498 20.8023 17.1481 21.2176 15.4691L21.2228 15.4486C21.7362 13.1037 21.7362 10.7258 21.2228 8.38101ZM19.72 15.1085C19.4428 16.2039 18.0211 17.5657 16.8914 17.8173C15.4126 18.0985 13.9221 18.2187 12.4331 18.1774C12.4034 18.1766 12.375 18.1881 12.3543 18.2093C12.143 18.4262 10.9678 19.6327 10.9678 19.6327L9.49304 21.1462C9.38521 21.2586 9.1958 21.1822 9.1958 21.027V17.9221C9.1958 17.8709 9.15917 17.8273 9.1088 17.8174C9.10851 17.8173 9.10823 17.8173 9.10794 17.8172C7.97833 17.5656 6.55718 16.2038 6.27934 15.1084C5.81723 12.989 5.81723 10.8404 6.27934 8.72098C6.55718 7.6256 7.97833 6.26378 9.10794 6.01219C11.6906 5.52098 14.3093 5.52098 16.8914 6.01219C18.0216 6.26378 19.4428 7.6256 19.72 8.72098C20.1827 10.8405 20.1827 12.989 19.72 15.1085Z" fill="white"/>
<path d="M15.4569 16.5416C15.2833 16.4889 15.1178 16.4534 14.9641 16.3897C13.3714 15.7289 11.9057 14.8764 10.7446 13.5697C10.0844 12.8266 9.56759 11.9876 9.13075 11.0998C8.9236 10.6788 8.74902 10.2412 8.57108 9.80657C8.40883 9.41017 8.64781 9.00066 8.89947 8.702C9.1356 8.42171 9.43946 8.20719 9.76853 8.0491C10.0254 7.9257 10.2787 7.99684 10.4663 8.21455C10.8718 8.68523 11.2443 9.17997 11.546 9.72555C11.7314 10.0611 11.6805 10.4713 11.3444 10.6997C11.2627 10.7552 11.1882 10.8204 11.1121 10.8831C11.0454 10.938 10.9826 10.9935 10.9368 11.0679C10.8532 11.204 10.8492 11.3646 10.903 11.5126C11.3176 12.6518 12.0163 13.5376 13.1629 14.0147C13.3464 14.0911 13.5307 14.1799 13.742 14.1553C14.096 14.1139 14.2107 13.7256 14.4587 13.5228C14.7012 13.3245 15.011 13.3219 15.2722 13.4872C15.5334 13.6525 15.7867 13.83 16.0384 14.0094C16.2855 14.1854 16.5315 14.3577 16.7594 14.5584C16.9785 14.7514 17.054 15.0046 16.9306 15.2665C16.7047 15.7462 16.376 16.1452 15.9018 16.4C15.7679 16.4718 15.6079 16.4951 15.4569 16.5416C15.2833 16.4888 15.6079 16.4951 15.4569 16.5416Z" fill="white"/>
<path d="M13.0045 7.50087C15.0877 7.55923 16.7987 8.94175 17.1654 11.0013C17.2279 11.3522 17.2501 11.711 17.2779 12.0672C17.2896 12.217 17.2048 12.3593 17.0431 12.3613C16.8761 12.3633 16.801 12.2236 16.7901 12.0738C16.7687 11.7774 16.7538 11.4796 16.7129 11.1856C16.4973 9.63378 15.2598 8.3499 13.7152 8.0744C13.4827 8.03293 13.2448 8.02203 13.0094 7.99733C12.8605 7.98169 12.6656 7.97268 12.6326 7.78766C12.605 7.63254 12.7359 7.50903 12.8836 7.5011C12.9238 7.49887 12.9642 7.5007 13.0045 7.50087C15.0877 7.55923 12.9642 7.5007 13.0045 7.50087Z" fill="white"/>
<path d="M16.1701 11.6048C16.1666 11.6308 16.1648 11.692 16.1496 11.7496C16.0943 11.9587 15.7772 11.9849 15.7042 11.7738C15.6826 11.7112 15.6793 11.6399 15.6792 11.5725C15.6784 11.1313 15.5825 10.6905 15.36 10.3066C15.1313 9.91203 14.7819 9.58033 14.372 9.37963C14.1242 9.25828 13.8562 9.18286 13.5846 9.1379C13.4658 9.11828 13.3459 9.10635 13.2266 9.08975C13.082 9.06967 13.0048 8.97753 13.0116 8.83507C13.018 8.70157 13.1156 8.60556 13.2611 8.61377C13.7392 8.64093 14.2009 8.74425 14.626 8.96931C15.4903 9.42704 15.984 10.1495 16.1281 11.1143C16.1346 11.158 16.1451 11.2013 16.1484 11.2451C16.1566 11.3535 16.1617 11.4619 16.1701 11.6048C16.1666 11.6308 16.1617 11.4619 16.1701 11.6048Z" fill="white"/>
<path d="M14.8747 11.5542C14.7005 11.5574 14.6072 11.4609 14.5892 11.3011C14.5767 11.1897 14.5668 11.0768 14.5403 10.9684C14.4879 10.7549 14.3744 10.557 14.1948 10.4262C14.11 10.3644 14.014 10.3194 13.9133 10.2904C13.7855 10.2534 13.6527 10.2636 13.5251 10.2323C13.3866 10.1984 13.31 10.0862 13.3318 9.95627C13.3516 9.838 13.4667 9.74569 13.5959 9.75505C14.4036 9.81335 14.9808 10.2309 15.0632 11.1817C15.069 11.2488 15.0758 11.3197 15.061 11.3839C15.0355 11.4938 14.9541 11.5489 14.8747 11.5542C14.7005 11.5574 14.9541 11.5489 14.8747 11.5542Z" fill="white"/>
</svg>
