<svg width="27" height="27" viewBox="0 0 27 27" fill="none" xmlns="http://www.w3.org/2000/svg">
<g clip-path="url(#clip0)">
<path d="M24.1667 0H2.5C1.39543 0 0.5 0.895433 0.5 2V24.8333C0.5 25.9379 1.39543 26.8333 2.5 26.8333H24.1667C25.2712 26.8333 26.1667 25.9379 26.1667 24.8333V2C26.1667 0.895431 25.2712 0 24.1667 0Z" fill="#DC472E"/>
<path d="M15.3277 17.1775C15.3272 17.0774 15.299 16.9731 15.2635 16.8795C15.2162 16.7565 15.1148 16.6952 14.9875 16.6823C14.8383 16.667 14.7189 16.73 14.6108 16.8301C14.5674 16.8695 14.5477 16.9284 14.5477 16.9284L14.5499 20.1061V20.1844C14.5499 20.1844 14.5759 20.221 14.5798 20.2257C14.6677 20.3252 14.7702 20.4041 14.9014 20.4323C15.1176 20.4788 15.2703 20.3846 15.3125 20.175C15.3232 20.1226 15.3294 20.0685 15.3294 20.0149C15.3305 19.0687 15.3322 18.1231 15.3277 17.1775ZM15.3277 17.1775C15.3272 17.0774 15.299 16.9731 15.2635 16.8795C15.2162 16.7565 15.1148 16.6952 14.9875 16.6823C14.8383 16.667 14.7189 16.73 14.6108 16.8301C14.5674 16.8695 14.5477 16.9284 14.5477 16.9284L14.5499 20.1061V20.1844C14.5499 20.1844 14.5759 20.221 14.5798 20.2257C14.6677 20.3252 14.7702 20.4041 14.9014 20.4323C15.1176 20.4788 15.2703 20.3846 15.3125 20.175C15.3232 20.1226 15.3294 20.0685 15.3294 20.0149C15.3305 19.0687 15.3322 18.1231 15.3277 17.1775ZM18.7311 12.3852C15.134 12.3046 11.5351 12.3046 7.93744 12.3852C6.68939 12.4129 5.69141 13.4798 5.69141 14.7852V20.659C5.69141 21.965 6.68939 23.0319 7.93744 23.0595C11.5351 23.1402 15.134 23.1402 18.7311 23.0595C19.9797 23.0319 20.9777 21.965 20.9777 20.659V14.7852C20.9777 13.4799 19.9797 12.4129 18.7311 12.3852ZM8.994 21.1943H7.95659V15.0631H6.88257V14.0375H10.0703V15.0608H8.994V21.1943ZM12.7066 18.6495V21.1948H11.788V20.6131C11.7548 20.6502 11.7362 20.6702 11.7187 20.6908C11.5211 20.924 11.2969 21.1183 11.0108 21.2213C10.8711 21.2714 10.7275 21.2884 10.5805 21.2619C10.38 21.2272 10.2454 21.1065 10.1643 20.9157C10.0889 20.7397 10.0697 20.5513 10.0691 20.3617C10.0669 19.661 10.068 15.9528 10.068 15.9168H10.9843C10.986 15.9492 10.9894 18.6112 10.99 19.9095C10.99 19.9801 10.9905 20.0526 11.0041 20.1214C11.0378 20.2957 11.1657 20.3705 11.3262 20.3093C11.5109 20.2386 11.6517 20.1055 11.77 19.946C11.7875 19.923 11.7875 19.8818 11.7875 19.8488V15.911L12.7066 15.9086C12.7066 15.9087 12.7066 17.7674 12.7066 18.6495ZM16.2012 20.6861C16.0785 21.0724 15.8081 21.269 15.4195 21.2649C15.1036 21.2619 14.8473 21.1306 14.6361 20.891C14.6125 20.8645 14.5471 20.7921 14.5471 20.7921V21.1936H13.6269V14.0368H14.5471C14.5471 14.7987 14.5471 16.3926 14.5471 16.3926C14.5471 16.3926 14.5989 16.2843 14.6463 16.2283C14.7887 16.0617 14.9622 15.9327 15.1762 15.8762C15.5293 15.7838 15.9365 15.898 16.1303 16.3296C16.2446 16.5845 16.2767 16.8566 16.2767 17.1333C16.2784 18.1337 16.2784 19.134 16.2773 20.1344C16.2767 20.3216 16.2581 20.5066 16.2012 20.6861ZM19.6001 20.4848C19.4408 20.9729 19.1113 21.2438 18.6281 21.3179C18.3284 21.3639 18.0316 21.3574 17.7506 21.2243C17.3659 21.043 17.148 20.715 17.0545 20.2976C17.0111 20.1033 16.9897 19.8995 16.9875 19.6999C16.9801 18.9162 16.9835 18.132 16.9852 17.3483C16.9858 16.9385 17.0793 16.5605 17.3479 16.2466C17.6543 15.8881 18.0463 15.7544 18.494 15.7844C18.6286 15.7933 18.766 15.8162 18.8939 15.8604C19.3292 16.0099 19.5618 16.3508 19.6531 16.803C19.688 16.9773 19.701 17.1581 19.7038 17.3365C19.7111 17.7545 19.701 18.676 19.701 18.676H17.9387V19.9967C17.9387 20.234 18.1223 20.4259 18.3493 20.4259C18.5757 20.4259 18.7593 20.234 18.7593 19.9967V19.3178H19.706C19.706 19.3177 19.7201 20.1191 19.6001 20.4848ZM18.7593 17.1157C18.7593 16.879 18.5757 16.6865 18.3493 16.6865C18.1223 16.6865 17.9387 16.879 17.9387 17.1157V17.857H18.7593V17.1157ZM15.2635 16.8796C15.2162 16.7565 15.1148 16.6953 14.9875 16.6823C14.8383 16.667 14.7189 16.73 14.6108 16.8301C14.5674 16.8696 14.5477 16.9285 14.5477 16.9285L14.5499 20.1062V20.1845C14.5499 20.1845 14.5759 20.221 14.5798 20.2257C14.6677 20.3252 14.7702 20.4041 14.9014 20.4324C15.1176 20.4789 15.2703 20.3847 15.3125 20.1751C15.3232 20.1227 15.3294 20.0685 15.3294 20.0149C15.3305 19.0687 15.3322 18.1231 15.3277 17.1775C15.3272 17.0774 15.299 16.9731 15.2635 16.8796Z" fill="white"/>
<path d="M17.6165 5.59323L17.6162 10.9068H16.6745L16.6756 10.3359C16.5715 10.4432 16.4826 10.5433 16.3849 10.6333C16.2118 10.7927 16.0157 10.9116 15.7863 10.9585C15.4341 11.0305 15.1342 10.9141 15.0219 10.5328C14.9845 10.4058 14.9619 10.2689 14.9609 10.1363V5.59323H15.8956V9.6454C15.8956 9.69909 15.8997 9.75338 15.9087 9.80602C15.9371 9.973 16.0552 10.0516 16.209 9.99585C16.3965 9.92802 16.5395 9.7923 16.6609 9.63238C16.6781 9.60954 16.675 9.56691 16.675 9.53341V5.59323H17.6165Z" fill="white"/>
<path d="M9.82556 6.51657C9.62112 5.61565 9.1928 3.71378 9.1928 3.71378H8.12109C8.12109 3.71378 8.94449 6.56868 9.31271 7.8419C9.32594 7.88794 9.33203 7.93793 9.33203 7.98615L9.33163 10.9056H10.3199L10.3195 7.98615C10.3195 7.93793 10.3256 7.88794 10.3388 7.8419C10.707 6.56868 11.5304 3.71378 11.5304 3.71378H10.4587C10.4587 3.71378 10.0303 5.61565 9.82595 6.51657H9.82556Z" fill="white"/>
<path d="M12.8212 5.46011C12.0764 5.46011 11.4727 6.0913 11.4727 6.86993V9.62898C11.4727 10.4076 12.0764 11.0388 12.8212 11.0388C13.566 11.0388 14.1697 10.4076 14.1697 9.62898V6.86993C14.1698 6.0913 13.566 5.46011 12.8212 5.46011ZM13.2103 9.68468C13.2103 9.90901 13.0358 10.0915 12.8212 10.0915C12.6067 10.0915 12.4321 9.90901 12.4321 9.68468V6.81417C12.4321 6.58984 12.6067 6.40737 12.8212 6.40737C13.0358 6.40737 13.2103 6.5899 13.2103 6.81417V9.68468Z" fill="white"/>
</g>
<defs>
<clipPath id="clip0">
<rect width="25.6667" height="26.8333" fill="white" transform="translate(0.5)"/>
</clipPath>
</defs>
</svg>
