<svg width="51" height="50" viewBox="0 0 51 50" fill="none" xmlns="http://www.w3.org/2000/svg">
<path d="M25.9434 12.0802C24.2202 12.0802 22.8184 10.7064 22.8184 9.0177C22.8184 7.32902 24.2202 5.9552 25.9434 5.9552C27.6665 5.9552 29.0684 7.32902 29.0684 9.0177C29.0684 10.7064 27.6665 12.0802 25.9434 12.0802ZM25.9434 7.48645C25.0818 7.48645 24.3809 8.17341 24.3809 9.0177C24.3809 9.86199 25.0818 10.549 25.9434 10.549C26.8049 10.549 27.5059 9.86199 27.5059 9.0177C27.5059 8.17341 26.8049 7.48645 25.9434 7.48645Z" fill="#E0E0E0"/>
<path fill-rule="evenodd" clip-rule="evenodd" d="M46.2559 31.9865H47.8184C48.6813 31.9865 49.3809 32.672 49.3809 33.5177C49.3809 34.3634 48.6813 35.049 47.8184 35.049H46.2559H5.63086H4.06836C3.20537 35.049 2.50586 34.3634 2.50586 33.5177C2.50586 32.672 3.20537 31.9865 4.06836 31.9865H5.63086H46.2559Z" fill="#D0CFD1"/>
<path d="M25.9434 10.549C13.8621 10.549 4.06836 20.1468 4.06836 31.9865H47.8184C47.8184 20.1468 38.0246 10.549 25.9434 10.549Z" fill="#EFEFEF"/>
<path d="M38.9316 24.2621C44.379 24.2621 48.7949 19.8748 48.7949 14.4628C48.7949 9.05082 44.379 4.66351 38.9316 4.66351C33.4843 4.66351 29.0684 9.05082 29.0684 14.4628C29.0684 19.8748 33.4843 24.2621 38.9316 24.2621Z" fill="#AA4140"/>
<path d="M38.1473 24.2622C43.1614 24.2622 47.2262 20.2787 47.2262 15.3648C47.2262 10.4509 43.1614 6.46747 38.1473 6.46747C33.1331 6.46747 29.0684 10.4509 29.0684 15.3648C29.0684 20.2787 33.1331 24.2622 38.1473 24.2622Z" fill="url(#paint0_linear)"/>
<path d="M38.8475 10.5477L39.9758 12.7881L42.4986 13.1474C42.8682 13.2 43.0158 13.6451 42.7484 13.9006L40.9228 15.6445L41.3538 18.1069C41.4169 18.4676 41.0305 18.7427 40.6999 18.5724L38.4435 17.4098L36.1869 18.5723C35.8564 18.7427 35.47 18.4676 35.5331 18.1069L35.9641 15.6445L34.1385 13.9006C33.8711 13.6451 34.0187 13.2 34.3883 13.1474L36.9111 12.7881L38.0393 10.5477C38.2047 10.2195 38.6822 10.2195 38.8475 10.5477Z" fill="white"/>
<defs>
<linearGradient id="paint0_linear" x1="32.0453" y1="-6.25374" x2="54.4512" y2="-2.78093" gradientUnits="userSpaceOnUse">
<stop offset="0.0507169" stop-color="#F95E5D"/>
<stop offset="1" stop-color="#DE3838"/>
</linearGradient>
</defs>
</svg>
