<svg width="56" height="53" viewBox="0 0 56 53" fill="none" xmlns="http://www.w3.org/2000/svg">
<path d="M5.84813 24.2042C5.77495 24.2042 5.70341 24.1838 5.64246 24.1455C5.58152 24.1072 5.53389 24.0527 5.50556 23.9889C5.47722 23.9251 5.46943 23.8548 5.48317 23.7869C5.49691 23.7189 5.53157 23.6563 5.58279 23.6069C6.20082 23.1244 6.68162 22.5037 6.98158 21.801C7.02725 21.0085 6.86646 20.2175 6.51333 19.4975C6.12685 18.4434 5.72773 17.3599 6.16847 16.4836C6.61813 15.5855 7.77759 15.1871 8.89914 14.8027C9.69542 14.6119 10.4303 14.2399 11.0397 13.7192C11.4381 13.033 11.653 12.2651 11.6655 11.4825C11.8015 10.3673 11.9412 9.21344 12.7521 8.59436C13.563 7.97528 14.7745 8.09263 15.9533 8.20155C16.7677 8.35617 17.6097 8.31998 18.406 8.09614C19.0673 7.64627 19.6029 7.05107 19.9668 6.36187C20.6045 5.40409 21.2645 4.41328 22.2961 4.18349C23.2846 3.96144 24.3237 4.56014 25.3241 5.13706C25.9948 5.62093 26.7827 5.9388 27.6162 6.06182C28.4494 5.92859 29.235 5.60298 29.9032 5.11387C30.8969 4.52641 31.9285 3.91928 32.917 4.13009C33.9531 4.34582 34.6265 5.3289 35.2731 6.27966C35.6447 6.96568 36.1879 7.55549 36.8555 7.99776C37.6539 8.21304 38.4959 8.24054 39.3082 8.07787C40.4847 7.9549 41.7022 7.82841 42.516 8.43555C43.3299 9.04268 43.4897 10.2021 43.6376 11.3166C43.6585 12.097 43.8802 12.8609 44.2835 13.5421C44.8996 14.0565 45.6396 14.4206 46.4389 14.6025C47.5649 14.9756 48.7281 15.3607 49.1889 16.2552C49.374 16.6307 49.4383 17.0492 49.3739 17.459C49.3686 17.5048 49.3537 17.5492 49.3302 17.5897C49.3067 17.6301 49.2749 17.6657 49.2368 17.6946C49.1987 17.7234 49.155 17.7449 49.1081 17.7578C49.0613 17.7706 49.0122 17.7746 48.9637 17.7696C48.9152 17.7645 48.8682 17.7504 48.8254 17.7282C48.7827 17.7059 48.7449 17.676 48.7144 17.6399C48.6839 17.6039 48.6612 17.5626 48.6476 17.5183C48.634 17.4739 48.6298 17.4275 48.6352 17.3817C48.6825 17.1049 48.6432 16.8211 48.5222 16.5651C48.1944 15.9285 47.1769 15.5919 46.1929 15.2658C45.2592 15.0522 44.4017 14.6096 43.7067 13.9827C43.2046 13.2048 42.9271 12.3161 42.9018 11.4052C42.7724 10.4291 42.6387 9.42004 42.0574 8.98647C41.4762 8.5529 40.4223 8.66814 39.3907 8.77566C38.443 8.96591 37.459 8.91745 36.5374 8.63512C35.7359 8.1457 35.0848 7.46541 34.6495 6.66263C34.081 5.82922 33.4968 4.96912 32.7535 4.81522C32.0564 4.66625 31.1608 5.19679 30.2949 5.70906C29.5168 6.27711 28.5937 6.64073 27.6192 6.76312H27.6066C26.6352 6.64836 25.7127 6.29486 24.9309 5.73787C24.0583 5.23403 23.1568 4.71685 22.4596 4.86863C21.7253 5.03025 21.1478 5.89668 20.5904 6.73501C20.1656 7.54071 19.525 8.2271 18.7323 8.72577C17.8133 9.01947 16.8288 9.07957 15.8775 8.90004C14.8503 8.80377 13.7875 8.70468 13.2174 9.13966C12.6473 9.57463 12.5202 10.5865 12.3998 11.5619C12.3847 12.4755 12.1155 13.3693 11.6194 14.1534C10.9315 14.7869 10.0795 15.2381 9.14887 15.4619C8.16928 15.7985 7.1555 16.1456 6.83664 16.7837C6.52671 17.3992 6.87529 18.3479 7.21273 19.2656C7.62324 20.104 7.79344 21.0297 7.70624 21.9499C7.38513 22.7863 6.83529 23.5273 6.11273 24.0974C6.07834 24.1309 6.03724 24.1576 5.9918 24.176C5.94637 24.1943 5.89753 24.2039 5.84813 24.2042Z" fill="#D0CFD1" stroke="#D0CFD1" stroke-width="2"/>
<path d="M22.969 48.2374C22.829 48.2376 22.6894 48.2232 22.5528 48.1945C21.5196 47.9788 20.8485 46.995 20.1989 46.0435C19.8279 45.3584 19.2861 44.7689 18.6203 44.3261C17.8195 44.1108 16.9753 44.0835 16.1609 44.2467C14.9858 44.3697 13.7684 44.4962 12.9582 43.8883C12.1481 43.2805 11.9861 42.1259 11.8367 41.0115C11.8156 40.2293 11.592 39.464 11.1856 38.7825C10.5696 38.2676 9.82955 37.9033 9.03019 37.7214C7.90417 37.3483 6.741 36.9632 6.28019 36.0686C6.0983 35.6943 6.03381 35.2785 6.09438 34.8705C6.10526 34.7784 6.15359 34.6938 6.22916 34.6347C6.30473 34.5755 6.40164 34.5465 6.49944 34.5536C6.59749 34.5623 6.68786 34.6075 6.75071 34.6792C6.81356 34.7508 6.84375 34.8432 6.83465 34.9359C6.78911 35.2145 6.82803 35.4995 6.94688 35.758C7.27465 36.3947 8.29215 36.7313 9.2762 37.0573C10.2098 37.2709 11.0674 37.7135 11.7623 38.3405C12.2687 39.1188 12.5491 40.0095 12.5755 40.9229C12.7063 41.8969 12.8401 42.9038 13.4205 43.3367C14.001 43.7696 15.0557 43.655 16.0806 43.5475C17.0303 43.3571 18.0162 43.4056 18.9398 43.688C19.7395 44.1782 20.3892 44.8581 20.824 45.6598C21.3926 46.4918 21.9797 47.3519 22.7148 47.5058C23.4157 47.6527 24.3105 47.1236 25.1771 46.6113C25.9549 46.0426 26.8781 45.6789 27.8528 45.5572C28.8314 45.6623 29.7612 46.0172 30.5426 46.5839C31.4152 47.0863 32.3212 47.6084 33.0087 47.4517C33.7475 47.2901 34.325 46.4237 34.8824 45.5861C35.3084 44.7786 35.9518 44.0915 36.748 43.5939C37.6655 43.3007 38.6485 43.2408 39.5983 43.4203C40.6284 43.5166 41.6928 43.6157 42.2621 43.1807C42.8314 42.7457 42.9578 41.7345 43.0744 40.7599C43.0876 39.8459 43.3558 38.9514 43.8519 38.1669C44.5395 37.5331 45.3916 37.0818 46.3224 36.8585C47.302 36.5219 48.3158 36.174 48.6347 35.5367C48.9483 34.919 48.5997 33.9697 48.263 33.0505C47.8547 32.2128 47.686 31.2884 47.774 30.3697C48.0966 29.5357 48.6435 28.7956 49.3608 28.2223C49.4298 28.1556 49.5239 28.1176 49.6226 28.1167C49.6714 28.1162 49.7198 28.1248 49.7652 28.142C49.8105 28.1592 49.8517 28.1847 49.8866 28.217C49.9215 28.2493 49.9494 28.2878 49.9685 28.3302C49.9877 28.3727 49.9978 28.4183 49.9983 28.4645C49.9989 28.5106 49.9897 28.5565 49.9715 28.5993C49.9533 28.6421 49.9264 28.6812 49.8922 28.7142C49.2788 29.2014 48.7996 29.822 48.4957 30.5229C48.4509 31.3131 48.6111 32.1018 48.9624 32.82C49.3489 33.8741 49.748 34.9619 49.3028 35.8417C48.8532 36.739 47.6937 37.1367 46.5721 37.5218C45.7759 37.7126 45.041 38.0846 44.4316 38.6054C44.0335 39.2918 43.8196 40.06 43.8088 40.8428C43.675 41.958 43.5367 43.1111 42.7259 43.7309C41.915 44.3507 40.7005 44.2333 39.521 44.123C38.7066 43.9678 37.8644 44.004 37.0683 44.2284C36.4062 44.6778 35.8704 45.2734 35.5075 45.9634C34.8698 46.9212 34.2098 47.9113 33.1744 48.1418C32.1837 48.3624 31.1513 47.7665 30.1517 47.1896C29.4796 46.7091 28.6935 46.3912 27.8617 46.2635H27.8536C27.0216 46.3966 26.2373 46.722 25.5703 47.2107C24.8145 47.7645 23.9169 48.1187 22.969 48.2374Z" fill="#D0CFD1" stroke="#D0CFD1" stroke-width="2"/>
<path d="M5.29527 34.9028C5.24292 35.2464 5.29446 35.5969 5.44392 35.914C6.17676 37.3356 9.26493 37.344 10.3032 38.5604C11.3416 39.7768 10.7128 42.6361 12.0172 43.6121C13.3089 44.5804 16.0953 43.331 17.6071 44.0084C19.0861 44.6732 19.8212 47.5086 21.4615 47.8515C23.0565 48.1888 24.9816 45.9198 26.6784 45.9106C28.3752 45.9015 30.3344 48.1502 31.9182 47.796C33.5608 47.4355 34.2557 44.5931 35.7333 43.9122C37.2309 43.2193 40.0315 44.4385 41.318 43.4568C42.6046 42.4751 41.9349 39.6208 42.9658 38.3875C43.9967 37.1543 47.0774 37.1191 47.7969 35.6898C48.5067 34.2915 46.6003 32.0056 46.963 30.4484C47.2719 29.6803 47.7837 28.9998 48.4495 28.4717" fill="#E0E0E0"/>
<path d="M4.67578 23.8528C5.34638 23.3268 5.86177 22.6459 6.17193 21.8761C6.53463 20.3189 4.62821 18.033 5.33132 16.6346C6.04707 15.2039 9.13524 15.1638 10.1579 13.939C11.1806 12.7142 10.5192 9.85773 11.8117 8.86973C13.1042 7.88173 15.8928 9.10724 17.3964 8.41438C18.8673 7.73416 19.5689 4.89103 21.2048 4.53054C22.7953 4.17919 24.7478 6.42784 26.4446 6.41589C28.1415 6.40395 30.0739 4.13773 31.6615 4.47503C33.3085 4.81795 34.0398 7.65335 35.5263 8.31811C37.0314 8.99551 39.8186 7.74611 41.1163 8.71443C42.414 9.68276 41.7852 12.5435 42.8257 13.7662C43.8663 14.9889 46.9522 14.991 47.685 16.4125C47.8376 16.7287 47.8893 17.0802 47.8337 17.4237" fill="#E0E0E0"/>
<path d="M12.9395 33.7637C14.5505 36.3488 16.9466 38.416 19.8166 39.6967C22.6865 40.9774 25.8975 41.4124 29.0324 40.9451C32.1672 40.4778 35.0809 39.1299 37.3949 37.0765C39.7088 35.0231 41.316 32.3592 42.0077 29.4308" fill="white"/>
<path d="M11.1191 22.8929C11.8108 19.9646 13.418 17.3006 15.732 15.2472C18.0459 13.1938 20.9596 11.8459 24.0945 11.3787C27.2293 10.9114 30.4403 11.3464 33.3103 12.6271C36.1802 13.9078 38.5764 15.975 40.1874 18.5601" fill="white"/>
<path d="M40.1864 18.5629L37.4513 18.9704C35.9306 17.1801 33.9935 15.7456 31.7907 14.7787C29.5878 13.8117 27.1787 13.3384 24.7508 13.3955C22.3229 13.4526 19.9417 14.0386 17.7925 15.108C15.6433 16.1773 13.784 17.7011 12.3594 19.5607C13.6178 17.1379 15.5464 15.0823 17.9405 13.6119C20.3346 12.1415 23.105 11.3111 25.9579 11.2088C28.8107 11.1065 31.6397 11.7361 34.1447 13.0308C36.6497 14.3256 38.7374 16.2372 40.1864 18.5629Z" fill="white"/>
<path d="M48.7907 17.2706L2.55255 24.1732C1.8623 24.2762 1.39109 24.8888 1.50007 25.5414L2.92134 34.0518C3.03033 34.7044 3.67824 35.1499 4.3685 35.0468L50.6067 28.1443C51.2969 28.0412 51.7682 27.4287 51.6592 26.7761L50.2379 18.2657C50.1289 17.6131 49.481 17.1676 48.7907 17.2706Z" fill="url(#paint0_linear)"/>
<path d="M50.5859 28.1548L49.4711 28.3235L48.1778 20.5867C48.1242 20.2733 47.9419 19.9926 47.6704 19.8057C47.399 19.6188 47.0604 19.5409 46.7285 19.5889L1.62106 26.3137L1.49471 25.5407C1.4682 25.3857 1.47429 25.2272 1.51263 25.0744C1.55096 24.9216 1.6208 24.7774 1.71814 24.6501C1.81548 24.5229 1.93841 24.415 2.07989 24.3327C2.22138 24.2504 2.37864 24.1953 2.54268 24.1705L48.7724 17.284C48.9364 17.2589 49.104 17.2647 49.2657 17.3009C49.4273 17.3372 49.5798 17.4032 49.7144 17.4952C49.849 17.5873 49.9631 17.7035 50.0502 17.8373C50.1372 17.971 50.1955 18.1197 50.2217 18.2748L51.6413 26.7845C51.6921 27.0984 51.6097 27.4184 51.412 27.6751C51.2143 27.9317 50.9174 28.1041 50.5859 28.1548Z" fill="#F55958"/>
<path d="M8.3658 30.5594L10.9099 30.18L11.0482 31.0148L7.55492 31.5348L6.65039 26.0959L10.0024 25.5963L10.1421 26.4304L7.73776 26.7887L7.97188 28.1941L10.0359 27.8864L10.1749 28.7205L8.11086 29.0283L8.3658 30.5594Z" fill="white"/>
<path d="M12.6983 26.3376C13.011 26.6828 13.2317 26.9307 13.3606 27.081H13.3799C13.479 26.8327 13.6076 26.5343 13.7656 26.1858L14.3171 24.9539L15.4075 24.7916L14.0518 27.7359L16.3915 30.2214L15.3168 30.3816L14.306 29.2861C14.0582 29.0177 13.8283 28.7631 13.6162 28.5223H13.6006C13.4713 28.8249 13.335 29.1341 13.1918 29.4498L12.5876 30.785L11.5143 30.9445L12.9265 27.899L10.6797 25.4922L11.77 25.3299L12.6983 26.3376Z" fill="white"/>
<path d="M18.6272 25.0664C18.3817 25.1006 18.1464 25.1824 17.936 25.3068C17.7348 25.427 17.5655 25.5893 17.441 25.7811C17.307 25.9913 17.2185 26.2247 17.1809 26.4676C17.135 26.7596 17.139 27.0566 17.1928 27.3474C17.235 27.6338 17.323 27.9124 17.4536 28.1738C17.5595 28.3867 17.7114 28.5763 17.8996 28.7303C18.0755 28.8702 18.2842 28.9685 18.5083 29.017C18.7561 29.0681 19.0121 29.0731 19.2619 29.0318C19.4627 29.0007 19.6604 28.9537 19.8528 28.8912C20.0429 28.8319 20.2265 28.7557 20.4013 28.6636L20.544 29.5223C20.3625 29.6073 20.1744 29.6792 19.9814 29.7373C19.7719 29.8001 19.5574 29.8471 19.34 29.8778C18.9458 29.9445 18.5414 29.9359 18.1508 29.8525C17.8109 29.7778 17.4939 29.6297 17.2247 29.4197C16.9535 29.2027 16.7335 28.9344 16.5788 28.632C16.4026 28.2904 16.2833 27.9251 16.2251 27.5491C16.1561 27.1581 16.1518 26.7594 16.2124 26.3671C16.265 26.0146 16.3886 25.6749 16.5766 25.3665C16.7614 25.0695 17.0157 24.8164 17.3199 24.6265C17.6565 24.4187 18.0369 24.2825 18.4347 24.2274C18.6433 24.1956 18.8544 24.1803 19.0657 24.1817C19.2507 24.182 19.4353 24.1999 19.6165 24.2351L19.7577 25.0784C19.5596 25.0432 19.3587 25.0244 19.1572 25.0222C18.9795 25.0234 18.8023 25.0382 18.6272 25.0664Z" fill="white"/>
<path d="M21.5621 23.8711L22.3299 28.4787L24.7499 28.1182L24.8896 28.9523L21.522 29.4541L20.6152 24.013L21.5621 23.8711Z" fill="white"/>
<path d="M27.9396 28.6017C27.6942 28.6414 27.4443 28.6501 27.1964 28.6277C26.985 28.6079 26.7784 28.5557 26.5847 28.4731C26.4043 28.3945 26.2399 28.2862 26.0994 28.1534C25.9546 28.015 25.8324 27.857 25.7367 27.6847C25.6498 27.53 25.5808 27.367 25.5308 27.1984C25.471 26.9971 25.4246 26.7925 25.3918 26.5857L24.8574 23.3813L25.8043 23.2408L26.3246 26.3559C26.3634 26.6633 26.4588 26.962 26.6063 27.2385C26.7195 27.4429 26.903 27.6048 27.1265 27.6973C27.3463 27.7711 27.5821 27.7917 27.8125 27.7575C28.0428 27.7233 28.2605 27.6352 28.4458 27.5013C28.6266 27.3482 28.7472 27.1415 28.7877 26.9152C28.8386 26.6093 28.8323 26.2972 28.7691 25.9933L28.2488 22.8782L29.1965 22.7377L29.7309 25.9427C29.7663 26.149 29.7883 26.3572 29.797 26.566C29.8042 26.741 29.7915 26.9163 29.7591 27.0888C29.7235 27.2811 29.6576 27.4673 29.5636 27.6411C29.471 27.8094 29.3472 27.9606 29.198 28.0873C29.0367 28.2225 28.8539 28.3325 28.6561 28.4134C28.427 28.5054 28.1861 28.5687 27.9396 28.6017Z" fill="white"/>
<path d="M33.606 26.0523C33.5921 25.9328 33.5388 25.8205 33.4537 25.7312C33.3703 25.6529 33.2684 25.5946 33.1564 25.5611C33.028 25.5218 32.8954 25.4961 32.761 25.4845C32.6173 25.4714 32.4669 25.4599 32.3098 25.4501C32.1072 25.435 31.9057 25.4087 31.7063 25.3714C31.5196 25.3376 31.3409 25.2724 31.1786 25.1789C31.0156 25.0825 30.8774 24.9529 30.7743 24.7994C30.6512 24.6062 30.5722 24.3908 30.5424 24.167C30.4935 23.9108 30.4996 23.6479 30.5602 23.394C30.6126 23.1802 30.7141 22.9798 30.8575 22.8072C31.0009 22.6414 31.1794 22.5057 31.3815 22.4088C31.6103 22.3007 31.856 22.2281 32.1092 22.1938C32.3886 22.1524 32.6719 22.1394 32.9542 22.1551C33.2101 22.1659 33.4638 22.2036 33.7108 22.2676L33.8528 23.1221C33.5872 23.0541 33.315 23.0115 33.0404 22.9949C32.8047 22.9806 32.568 22.9901 32.3344 23.023C32.0773 23.0457 31.8349 23.1462 31.6431 23.3097C31.5684 23.3855 31.5144 23.4774 31.4857 23.5775C31.4571 23.6775 31.4548 23.7827 31.4789 23.8838C31.4936 24.0036 31.5421 24.1174 31.6194 24.2133C31.6896 24.2951 31.7796 24.3597 31.8817 24.4017C31.9943 24.4476 32.1131 24.4784 32.2348 24.493C32.3641 24.5099 32.5008 24.5225 32.645 24.5317C32.872 24.5481 33.091 24.5731 33.3021 24.6069C33.5036 24.6382 33.6982 24.7017 33.8773 24.7945C34.0557 24.8893 34.2074 25.0233 34.3196 25.1852C34.4546 25.3925 34.5406 25.6251 34.5715 25.8668C34.6221 26.1268 34.6128 26.3941 34.544 26.6503C34.4806 26.8732 34.3601 27.0778 34.1932 27.2462C34.0126 27.4237 33.7956 27.5645 33.5555 27.6601C33.2767 27.7737 32.9833 27.8523 32.6829 27.8941C32.4038 27.936 32.1206 27.948 31.8386 27.9299C31.592 27.9198 31.3488 27.8709 31.1192 27.7852L30.9794 26.9419C31.2359 27.0164 31.5004 27.0636 31.768 27.0825C32.0226 27.0996 32.2785 27.089 32.5306 27.0509C32.6786 27.0287 32.8242 26.9937 32.9654 26.9462C33.098 26.9026 33.2219 26.8382 33.3318 26.7557C33.4347 26.6774 33.5152 26.5759 33.5659 26.4606C33.6188 26.3306 33.6327 26.1893 33.606 26.0523Z" fill="white"/>
<path d="M35.8931 27.3123L34.9863 21.8713L35.9332 21.7307L36.84 27.1717L35.8931 27.3123Z" fill="white"/>
<path d="M39.7716 25.3714C39.8184 25.0615 39.8511 24.8408 39.8734 24.7087C39.8957 24.5766 39.9411 24.3047 40.0132 23.8936L40.5215 21.0469L41.5234 20.8979L40.4086 26.6404L39.5576 26.7676L36.627 21.6267L37.6355 21.4763L39.0477 24.0376C39.2494 24.4077 39.3819 24.6527 39.4453 24.7727C39.5088 24.8926 39.6128 25.0929 39.7575 25.3735L39.7716 25.3714Z" fill="white"/>
<path d="M43.9337 25.2597L46.4778 24.8809L46.6168 25.715L43.1236 26.235L42.2168 20.794L45.5688 20.2944L45.7078 21.1278L43.3034 21.4862L43.5375 22.8916L45.6038 22.5824L45.7427 23.4165L43.6788 23.7243L43.9337 25.2597Z" fill="white"/>
<defs>
<linearGradient id="paint0_linear" x1="7.99499" y1="15.3935" x2="55.0542" y2="37.3427" gradientUnits="userSpaceOnUse">
<stop offset="0.0507169" stop-color="#F95E5D"/>
<stop offset="1" stop-color="#DE3838"/>
</linearGradient>
</defs>
</svg>
