<svg width="12" height="13" viewBox="0 0 12 13" fill="none" xmlns="http://www.w3.org/2000/svg">
<path opacity="0.5" d="M6.00001 0.722519C2.69165 0.722519 0 3.41417 0 6.72253C0 10.0309 2.69165 12.7225 6.00001 12.7225C9.30838 12.7225 12 10.0309 12 6.72253C12 3.41417 9.30835 0.722519 6.00001 0.722519ZM6.39029 10.2825C6.10524 10.33 5.53804 10.4487 5.25 10.4725C5.0062 10.4927 4.77612 10.3532 4.63588 10.1528C4.49526 9.95252 4.46156 9.69617 4.54505 9.46619L5.6792 6.34754H4.5C4.49899 5.6977 4.98642 5.21988 5.60984 5.03651C5.90735 4.94897 6.46164 4.82919 6.75 4.84755C6.92275 4.85853 7.22387 4.96692 7.36412 5.16726C7.50474 5.36757 7.53844 5.62392 7.45495 5.8539L6.3208 8.97255H7.49964C7.49987 9.62163 7.03061 10.1758 6.39029 10.2825ZM6.75 4.47253C6.33577 4.47253 5.99999 4.13671 5.99999 3.72252C5.99999 3.3083 6.33577 2.97252 6.75 2.97252C7.16422 2.97252 7.5 3.3083 7.5 3.72252C7.5 4.13673 7.16424 4.47253 6.75 4.47253Z" fill="#2C2A2B"/>
</svg>
