<svg width="30" height="28" viewBox="0 0 30 28" fill="none" xmlns="http://www.w3.org/2000/svg">
<g clip-path="url(#clip0)">
<path d="M1.99005 1.90538C-0.301968 4.19088 0.167129 6.61872 0.167129 13.9944C0.167129 20.1194 -0.946065 26.2595 4.87998 27.705C6.69925 28.1542 22.8187 28.1542 24.6355 27.7027C27.0612 27.1019 29.0348 25.213 29.3046 21.9195C29.3423 21.4599 29.3423 6.53705 29.3034 6.06805C29.0166 2.55988 26.7671 0.53805 23.8031 0.12855C23.1237 0.0340502 22.9876 0.00605022 19.5022 0.000216886C7.13918 0.00605022 4.42911 -0.52245 1.99005 1.90538Z" fill="url(#paint0_linear)"/>
<path d="M14.75 3.66214C10.3373 3.66214 6.14705 3.2853 4.54653 7.22864C3.88542 8.85731 3.98143 10.9725 3.98143 14.0011C3.98143 16.6588 3.89271 19.1566 4.54653 20.7725C6.1434 24.7181 10.3677 24.3401 14.7476 24.3401C18.9731 24.3401 23.3299 24.7625 24.9498 20.7725C25.6122 19.1275 25.5149 17.0438 25.5149 14.0011C25.5149 9.96214 25.747 7.35464 23.7066 5.39697C21.6406 3.41364 18.8467 3.66214 14.7451 3.66214H14.75ZM13.7851 5.52531C22.9896 5.51131 24.1611 4.52897 23.5146 18.1755C23.2849 23.002 19.4568 22.4723 14.7512 22.4723C6.17136 22.4723 5.92465 22.2366 5.92465 13.9965C5.92465 5.66064 6.60521 5.52997 13.7851 5.52297V5.52531ZM20.4983 7.24147C19.7849 7.24147 19.2064 7.79681 19.2064 8.48164C19.2064 9.16647 19.7849 9.72181 20.4983 9.72181C21.2116 9.72181 21.7901 9.16647 21.7901 8.48164C21.7901 7.79681 21.2116 7.24147 20.4983 7.24147ZM14.75 8.69164C11.696 8.69164 9.22049 11.0693 9.22049 14.0011C9.22049 16.933 11.696 19.3095 14.75 19.3095C17.804 19.3095 20.2783 16.933 20.2783 14.0011C20.2783 11.0693 17.804 8.69164 14.75 8.69164ZM14.75 10.5548C19.4957 10.5548 19.5017 17.4475 14.75 17.4475C10.0056 17.4475 9.99826 10.5548 14.75 10.5548Z" fill="white"/>
</g>
<defs>
<linearGradient id="paint0_linear" x1="2.04597" y1="26.2118" x2="28.2004" y2="2.63226" gradientUnits="userSpaceOnUse">
<stop stop-color="#FFDD55"/>
<stop offset="0.5" stop-color="#FF543E"/>
<stop offset="1" stop-color="#C837AB"/>
</linearGradient>
<clipPath id="clip0">
<rect width="29.1667" height="28" fill="white" transform="translate(0.167969)"/>
</clipPath>
</defs>
</svg>
