<svg width="11" height="11" viewBox="0 0 11 11" fill="none" xmlns="http://www.w3.org/2000/svg">
<g clip-path="url(#clip0)">
<path d="M3.80957 0.180176H1.73439C1.15822 0.180176 0.689453 0.65904 0.689453 1.24763V3.36753C0.689453 3.95612 1.15822 4.43498 1.73439 4.43498H3.80957C4.38574 4.43498 4.8545 3.95612 4.8545 3.36753V1.24763C4.8545 0.65904 4.38574 0.180176 3.80957 0.180176ZM4.14856 3.36753C4.14856 3.55848 3.99649 3.71383 3.80957 3.71383H1.73439C1.54747 3.71383 1.39539 3.55848 1.39539 3.36753V1.24763C1.39539 1.05668 1.54747 0.90133 1.73439 0.90133H3.80957C3.99649 0.90133 4.14856 1.05668 4.14856 1.24763V3.36753Z" fill="white"/>
<path d="M9.48798 0.180176H7.44075C6.85686 0.180176 6.38184 0.66544 6.38184 1.26191V3.35325C6.38184 3.94972 6.85686 4.43498 7.44075 4.43498H9.48798C10.0719 4.43498 10.5469 3.94972 10.5469 3.35325V1.26191C10.5469 0.66544 10.0719 0.180176 9.48798 0.180176ZM9.84095 3.35325C9.84095 3.55208 9.6826 3.71383 9.48798 3.71383H7.44075C7.24612 3.71383 7.08778 3.55208 7.08778 3.35325V1.26191C7.08778 1.06308 7.24612 0.90133 7.44075 0.90133H9.48798C9.6826 0.90133 9.84095 1.06308 9.84095 1.26191V3.35325Z" fill="white"/>
<path d="M3.80957 5.92538H1.73439C1.15822 5.92538 0.689453 6.40425 0.689453 6.99284V9.11274C0.689453 9.70133 1.15822 10.1802 1.73439 10.1802H3.80957C4.38574 10.1802 4.8545 9.70133 4.8545 9.11274V6.99284C4.8545 6.40425 4.38574 5.92538 3.80957 5.92538ZM4.14856 9.11274C4.14856 9.30368 3.99649 9.45904 3.80957 9.45904H1.73439C1.54747 9.45904 1.39539 9.30368 1.39539 9.11274V6.99284C1.39539 6.80189 1.54747 6.64654 1.73439 6.64654H3.80957C3.99649 6.64654 4.14856 6.80189 4.14856 6.99284V9.11274Z" fill="white"/>
<path d="M9.48798 5.92538H7.44075C6.85686 5.92538 6.38184 6.41065 6.38184 7.00712V9.09846C6.38184 9.69493 6.85686 10.1802 7.44075 10.1802H9.48798C10.0719 10.1802 10.5469 9.69493 10.5469 9.09846V7.00712C10.5469 6.41065 10.0719 5.92538 9.48798 5.92538ZM9.84095 9.09846C9.84095 9.29728 9.6826 9.45904 9.48798 9.45904H7.44075C7.24612 9.45904 7.08778 9.29728 7.08778 9.09846V7.00712C7.08778 6.80829 7.24612 6.64654 7.44075 6.64654H9.48798C9.6826 6.64654 9.84095 6.80829 9.84095 7.00712V9.09846Z" fill="white"/>
</g>
<defs>
<clipPath id="clip0">
<rect width="9.8575" height="10" fill="white" transform="translate(0.689453 0.180176)"/>
</clipPath>
</defs>
</svg>
