<svg width="17" height="10" viewBox="0 0 17 10" fill="none" xmlns="http://www.w3.org/2000/svg">
<path d="M8.45605 0.0986328C5.39908 0.0986328 2.62686 1.77113 0.581246 4.48771C0.414324 4.71027 0.414324 5.0212 0.581246 5.24377C2.62686 7.96362 5.39908 9.63612 8.45605 9.63612C11.513 9.63612 14.2852 7.96362 16.3309 5.24704C16.4978 5.02448 16.4978 4.71354 16.3309 4.49098C14.2852 1.77113 11.513 0.0986328 8.45605 0.0986328ZM8.67534 8.22546C6.64609 8.3531 4.97032 6.68061 5.09797 4.64808C5.2027 2.97231 6.56099 1.61403 8.23676 1.50929C10.266 1.38164 11.9418 3.05414 11.8141 5.08666C11.7061 6.75916 10.3478 8.11745 8.67534 8.22546ZM8.57388 6.67406C7.4807 6.74279 6.57736 5.84272 6.64937 4.74955C6.70501 3.8462 7.43816 3.11633 8.3415 3.05741C9.43468 2.98868 10.338 3.88875 10.266 4.98193C10.2071 5.88855 9.47395 6.61842 8.57388 6.67406Z" fill="#ABAAAA"/>
</svg>
